<?xml version="1.0" encoding="utf-8" standalone="no"?>
<!DOCTYPE svg PUBLIC "-//W3C//DTD SVG 1.1//EN"
  "http://www.w3.org/Graphics/SVG/1.1/DTD/svg11.dtd">
<svg xmlns:xlink="http://www.w3.org/1999/xlink" width="1080pt" height="288pt" viewBox="0 0 1080 288" xmlns="http://www.w3.org/2000/svg" version="1.1">
 <metadata>
  <rdf:RDF xmlns:dc="http://purl.org/dc/elements/1.1/" xmlns:cc="http://creativecommons.org/ns#" xmlns:rdf="http://www.w3.org/1999/02/22-rdf-syntax-ns#">
   <cc:Work>
    <dc:type rdf:resource="http://purl.org/dc/dcmitype/StillImage"/>
    <dc:date>2022-11-06T18:31:27.532238</dc:date>
    <dc:format>image/svg+xml</dc:format>
    <dc:creator>
     <cc:Agent>
      <dc:title>Matplotlib v3.5.3, https://matplotlib.org/</dc:title>
     </cc:Agent>
    </dc:creator>
   </cc:Work>
  </rdf:RDF>
 </metadata>
 <defs>
  <style type="text/css">*{stroke-linejoin: round; stroke-linecap: butt}</style>
 </defs>
 <g id="figure_1">
  <g id="patch_1">
   <path d="M 0 288 
L 1080 288 
L 1080 0 
L 0 0 
z
" style="fill: #f0f0f0"/>
  </g>
  <g id="axes_1">
   <g id="patch_2">
    <path d="M 34.63 255.8 
L 1064.88 255.8 
L 1064.88 43.92 
L 34.63 43.92 
z
" style="fill: #f0f0f0"/>
   </g>
   <g id="matplotlib.axis_1">
    <g id="xtick_1">
     <g id="text_1">
      <!-- PTRATIO -->
      <g style="fill: #262626" transform="translate(114.226719 270.673594)scale(0.11 -0.11)">
       <defs>
        <path id="ArialMT-50" d="M 494 0 
L 494 4581 
L 2222 4581 
Q 2678 4581 2919 4538 
Q 3256 4481 3484 4323 
Q 3713 4166 3852 3881 
Q 3991 3597 3991 3256 
Q 3991 2672 3619 2267 
Q 3247 1863 2275 1863 
L 1100 1863 
L 1100 0 
L 494 0 
z
M 1100 2403 
L 2284 2403 
Q 2872 2403 3119 2622 
Q 3366 2841 3366 3238 
Q 3366 3525 3220 3729 
Q 3075 3934 2838 4000 
Q 2684 4041 2272 4041 
L 1100 4041 
L 1100 2403 
z
" transform="scale(0.015625)"/>
        <path id="ArialMT-54" d="M 1659 0 
L 1659 4041 
L 150 4041 
L 150 4581 
L 3781 4581 
L 3781 4041 
L 2266 4041 
L 2266 0 
L 1659 0 
z
" transform="scale(0.015625)"/>
        <path id="ArialMT-52" d="M 503 0 
L 503 4581 
L 2534 4581 
Q 3147 4581 3465 4457 
Q 3784 4334 3975 4021 
Q 4166 3709 4166 3331 
Q 4166 2844 3850 2509 
Q 3534 2175 2875 2084 
Q 3116 1969 3241 1856 
Q 3506 1613 3744 1247 
L 4541 0 
L 3778 0 
L 3172 953 
Q 2906 1366 2734 1584 
Q 2563 1803 2427 1890 
Q 2291 1978 2150 2013 
Q 2047 2034 1813 2034 
L 1109 2034 
L 1109 0 
L 503 0 
z
M 1109 2559 
L 2413 2559 
Q 2828 2559 3062 2645 
Q 3297 2731 3419 2920 
Q 3541 3109 3541 3331 
Q 3541 3656 3305 3865 
Q 3069 4075 2559 4075 
L 1109 4075 
L 1109 2559 
z
" transform="scale(0.015625)"/>
        <path id="ArialMT-41" d="M -9 0 
L 1750 4581 
L 2403 4581 
L 4278 0 
L 3588 0 
L 3053 1388 
L 1138 1388 
L 634 0 
L -9 0 
z
M 1313 1881 
L 2866 1881 
L 2388 3150 
Q 2169 3728 2063 4100 
Q 1975 3659 1816 3225 
L 1313 1881 
z
" transform="scale(0.015625)"/>
        <path id="ArialMT-49" d="M 597 0 
L 597 4581 
L 1203 4581 
L 1203 0 
L 597 0 
z
" transform="scale(0.015625)"/>
        <path id="ArialMT-4f" d="M 309 2231 
Q 309 3372 921 4017 
Q 1534 4663 2503 4663 
Q 3138 4663 3647 4359 
Q 4156 4056 4423 3514 
Q 4691 2972 4691 2284 
Q 4691 1588 4409 1038 
Q 4128 488 3612 205 
Q 3097 -78 2500 -78 
Q 1853 -78 1343 234 
Q 834 547 571 1087 
Q 309 1628 309 2231 
z
M 934 2222 
Q 934 1394 1379 917 
Q 1825 441 2497 441 
Q 3181 441 3623 922 
Q 4066 1403 4066 2288 
Q 4066 2847 3877 3264 
Q 3688 3681 3323 3911 
Q 2959 4141 2506 4141 
Q 1863 4141 1398 3698 
Q 934 3256 934 2222 
z
" transform="scale(0.015625)"/>
       </defs>
       <use xlink:href="#ArialMT-50"/>
       <use xlink:href="#ArialMT-54" x="66.699219"/>
       <use xlink:href="#ArialMT-52" x="127.783203"/>
       <use xlink:href="#ArialMT-41" x="200"/>
       <use xlink:href="#ArialMT-54" x="259.324219"/>
       <use xlink:href="#ArialMT-49" x="320.408203"/>
       <use xlink:href="#ArialMT-4f" x="348.191406"/>
      </g>
     </g>
    </g>
    <g id="xtick_2">
     <g id="text_2">
      <!-- B -->
      <g style="fill: #262626" transform="translate(340.036328 270.673594)scale(0.11 -0.11)">
       <defs>
        <path id="ArialMT-42" d="M 469 0 
L 469 4581 
L 2188 4581 
Q 2713 4581 3030 4442 
Q 3347 4303 3526 4014 
Q 3706 3725 3706 3409 
Q 3706 3116 3547 2856 
Q 3388 2597 3066 2438 
Q 3481 2316 3704 2022 
Q 3928 1728 3928 1328 
Q 3928 1006 3792 729 
Q 3656 453 3456 303 
Q 3256 153 2954 76 
Q 2653 0 2216 0 
L 469 0 
z
M 1075 2656 
L 2066 2656 
Q 2469 2656 2644 2709 
Q 2875 2778 2992 2937 
Q 3109 3097 3109 3338 
Q 3109 3566 3000 3739 
Q 2891 3913 2687 3977 
Q 2484 4041 1991 4041 
L 1075 4041 
L 1075 2656 
z
M 1075 541 
L 2216 541 
Q 2509 541 2628 563 
Q 2838 600 2978 687 
Q 3119 775 3209 942 
Q 3300 1109 3300 1328 
Q 3300 1584 3169 1773 
Q 3038 1963 2805 2039 
Q 2572 2116 2134 2116 
L 1075 2116 
L 1075 541 
z
" transform="scale(0.015625)"/>
       </defs>
       <use xlink:href="#ArialMT-42"/>
      </g>
     </g>
    </g>
    <g id="xtick_3">
     <g id="text_3">
      <!-- LSTAT -->
      <g style="fill: #262626" transform="translate(533.451797 270.673594)scale(0.11 -0.11)">
       <defs>
        <path id="ArialMT-4c" d="M 469 0 
L 469 4581 
L 1075 4581 
L 1075 541 
L 3331 541 
L 3331 0 
L 469 0 
z
" transform="scale(0.015625)"/>
        <path id="ArialMT-53" d="M 288 1472 
L 859 1522 
Q 900 1178 1048 958 
Q 1197 738 1509 602 
Q 1822 466 2213 466 
Q 2559 466 2825 569 
Q 3091 672 3220 851 
Q 3350 1031 3350 1244 
Q 3350 1459 3225 1620 
Q 3100 1781 2813 1891 
Q 2628 1963 1997 2114 
Q 1366 2266 1113 2400 
Q 784 2572 623 2826 
Q 463 3081 463 3397 
Q 463 3744 659 4045 
Q 856 4347 1234 4503 
Q 1613 4659 2075 4659 
Q 2584 4659 2973 4495 
Q 3363 4331 3572 4012 
Q 3781 3694 3797 3291 
L 3216 3247 
Q 3169 3681 2898 3903 
Q 2628 4125 2100 4125 
Q 1550 4125 1298 3923 
Q 1047 3722 1047 3438 
Q 1047 3191 1225 3031 
Q 1400 2872 2139 2705 
Q 2878 2538 3153 2413 
Q 3553 2228 3743 1945 
Q 3934 1663 3934 1294 
Q 3934 928 3725 604 
Q 3516 281 3123 101 
Q 2731 -78 2241 -78 
Q 1619 -78 1198 103 
Q 778 284 539 648 
Q 300 1013 288 1472 
z
" transform="scale(0.015625)"/>
       </defs>
       <use xlink:href="#ArialMT-4c"/>
       <use xlink:href="#ArialMT-53" x="55.615234"/>
       <use xlink:href="#ArialMT-54" x="122.314453"/>
       <use xlink:href="#ArialMT-41" x="176.023438"/>
       <use xlink:href="#ArialMT-54" x="235.347656"/>
      </g>
     </g>
    </g>
    <g id="xtick_4">
     <g id="text_4">
      <!-- RAD -->
      <g style="fill: #262626" transform="translate(744.192266 270.673594)scale(0.11 -0.11)">
       <defs>
        <path id="ArialMT-44" d="M 494 0 
L 494 4581 
L 2072 4581 
Q 2606 4581 2888 4516 
Q 3281 4425 3559 4188 
Q 3922 3881 4101 3404 
Q 4281 2928 4281 2316 
Q 4281 1794 4159 1391 
Q 4038 988 3847 723 
Q 3656 459 3429 307 
Q 3203 156 2883 78 
Q 2563 0 2147 0 
L 494 0 
z
M 1100 541 
L 2078 541 
Q 2531 541 2789 625 
Q 3047 709 3200 863 
Q 3416 1078 3536 1442 
Q 3656 1806 3656 2325 
Q 3656 3044 3420 3430 
Q 3184 3816 2847 3947 
Q 2603 4041 2063 4041 
L 1100 4041 
L 1100 541 
z
" transform="scale(0.015625)"/>
       </defs>
       <use xlink:href="#ArialMT-52"/>
       <use xlink:href="#ArialMT-41" x="72.216797"/>
       <use xlink:href="#ArialMT-44" x="138.916016"/>
      </g>
     </g>
    </g>
    <g id="xtick_5">
     <g id="text_5">
      <!-- btarget -->
      <g style="fill: #262626" transform="translate(944.733672 270.673594)scale(0.11 -0.11)">
       <defs>
        <path id="ArialMT-62" d="M 941 0 
L 419 0 
L 419 4581 
L 981 4581 
L 981 2947 
Q 1338 3394 1891 3394 
Q 2197 3394 2470 3270 
Q 2744 3147 2920 2923 
Q 3097 2700 3197 2384 
Q 3297 2069 3297 1709 
Q 3297 856 2875 390 
Q 2453 -75 1863 -75 
Q 1275 -75 941 416 
L 941 0 
z
M 934 1684 
Q 934 1088 1097 822 
Q 1363 388 1816 388 
Q 2184 388 2453 708 
Q 2722 1028 2722 1663 
Q 2722 2313 2464 2622 
Q 2206 2931 1841 2931 
Q 1472 2931 1203 2611 
Q 934 2291 934 1684 
z
" transform="scale(0.015625)"/>
        <path id="ArialMT-74" d="M 1650 503 
L 1731 6 
Q 1494 -44 1306 -44 
Q 1000 -44 831 53 
Q 663 150 594 308 
Q 525 466 525 972 
L 525 2881 
L 113 2881 
L 113 3319 
L 525 3319 
L 525 4141 
L 1084 4478 
L 1084 3319 
L 1650 3319 
L 1650 2881 
L 1084 2881 
L 1084 941 
Q 1084 700 1114 631 
Q 1144 563 1211 522 
Q 1278 481 1403 481 
Q 1497 481 1650 503 
z
" transform="scale(0.015625)"/>
        <path id="ArialMT-61" d="M 2588 409 
Q 2275 144 1986 34 
Q 1697 -75 1366 -75 
Q 819 -75 525 192 
Q 231 459 231 875 
Q 231 1119 342 1320 
Q 453 1522 633 1644 
Q 813 1766 1038 1828 
Q 1203 1872 1538 1913 
Q 2219 1994 2541 2106 
Q 2544 2222 2544 2253 
Q 2544 2597 2384 2738 
Q 2169 2928 1744 2928 
Q 1347 2928 1158 2789 
Q 969 2650 878 2297 
L 328 2372 
Q 403 2725 575 2942 
Q 747 3159 1072 3276 
Q 1397 3394 1825 3394 
Q 2250 3394 2515 3294 
Q 2781 3194 2906 3042 
Q 3031 2891 3081 2659 
Q 3109 2516 3109 2141 
L 3109 1391 
Q 3109 606 3145 398 
Q 3181 191 3288 0 
L 2700 0 
Q 2613 175 2588 409 
z
M 2541 1666 
Q 2234 1541 1622 1453 
Q 1275 1403 1131 1340 
Q 988 1278 909 1158 
Q 831 1038 831 891 
Q 831 666 1001 516 
Q 1172 366 1500 366 
Q 1825 366 2078 508 
Q 2331 650 2450 897 
Q 2541 1088 2541 1459 
L 2541 1666 
z
" transform="scale(0.015625)"/>
        <path id="ArialMT-72" d="M 416 0 
L 416 3319 
L 922 3319 
L 922 2816 
Q 1116 3169 1280 3281 
Q 1444 3394 1641 3394 
Q 1925 3394 2219 3213 
L 2025 2691 
Q 1819 2813 1613 2813 
Q 1428 2813 1281 2702 
Q 1134 2591 1072 2394 
Q 978 2094 978 1738 
L 978 0 
L 416 0 
z
" transform="scale(0.015625)"/>
        <path id="ArialMT-67" d="M 319 -275 
L 866 -356 
Q 900 -609 1056 -725 
Q 1266 -881 1628 -881 
Q 2019 -881 2231 -725 
Q 2444 -569 2519 -288 
Q 2563 -116 2559 434 
Q 2191 0 1641 0 
Q 956 0 581 494 
Q 206 988 206 1678 
Q 206 2153 378 2554 
Q 550 2956 876 3175 
Q 1203 3394 1644 3394 
Q 2231 3394 2613 2919 
L 2613 3319 
L 3131 3319 
L 3131 450 
Q 3131 -325 2973 -648 
Q 2816 -972 2473 -1159 
Q 2131 -1347 1631 -1347 
Q 1038 -1347 672 -1080 
Q 306 -813 319 -275 
z
M 784 1719 
Q 784 1066 1043 766 
Q 1303 466 1694 466 
Q 2081 466 2343 764 
Q 2606 1063 2606 1700 
Q 2606 2309 2336 2618 
Q 2066 2928 1684 2928 
Q 1309 2928 1046 2623 
Q 784 2319 784 1719 
z
" transform="scale(0.015625)"/>
        <path id="ArialMT-65" d="M 2694 1069 
L 3275 997 
Q 3138 488 2766 206 
Q 2394 -75 1816 -75 
Q 1088 -75 661 373 
Q 234 822 234 1631 
Q 234 2469 665 2931 
Q 1097 3394 1784 3394 
Q 2450 3394 2872 2941 
Q 3294 2488 3294 1666 
Q 3294 1616 3291 1516 
L 816 1516 
Q 847 969 1125 678 
Q 1403 388 1819 388 
Q 2128 388 2347 550 
Q 2566 713 2694 1069 
z
M 847 1978 
L 2700 1978 
Q 2663 2397 2488 2606 
Q 2219 2931 1791 2931 
Q 1403 2931 1139 2672 
Q 875 2413 847 1978 
z
" transform="scale(0.015625)"/>
       </defs>
       <use xlink:href="#ArialMT-62"/>
       <use xlink:href="#ArialMT-74" x="55.615234"/>
       <use xlink:href="#ArialMT-61" x="83.398438"/>
       <use xlink:href="#ArialMT-72" x="139.013672"/>
       <use xlink:href="#ArialMT-67" x="172.314453"/>
       <use xlink:href="#ArialMT-65" x="227.929688"/>
       <use xlink:href="#ArialMT-74" x="283.544922"/>
      </g>
     </g>
    </g>
   </g>
   <g id="matplotlib.axis_2">
    <g id="ytick_1">
     <g id="line2d_1">
      <path d="M 34.63 235.439917 
L 1064.88 235.439917 
" clip-path="url(#p99102d869b)" style="fill: none; stroke: #cbcbcb"/>
     </g>
     <g id="text_6">
      <!-- −4 -->
      <g style="fill: #262626" transform="translate(15.088281 239.376714)scale(0.11 -0.11)">
       <defs>
        <path id="ArialMT-2212" d="M 3381 1997 
L 356 1997 
L 356 2522 
L 3381 2522 
L 3381 1997 
z
" transform="scale(0.015625)"/>
        <path id="ArialMT-34" d="M 2069 0 
L 2069 1097 
L 81 1097 
L 81 1613 
L 2172 4581 
L 2631 4581 
L 2631 1613 
L 3250 1613 
L 3250 1097 
L 2631 1097 
L 2631 0 
L 2069 0 
z
M 2069 1613 
L 2069 3678 
L 634 1613 
L 2069 1613 
z
" transform="scale(0.015625)"/>
       </defs>
       <use xlink:href="#ArialMT-2212"/>
       <use xlink:href="#ArialMT-34" x="58.398438"/>
      </g>
     </g>
    </g>
    <g id="ytick_2">
     <g id="line2d_2">
      <path d="M 34.63 190.645004 
L 1064.88 190.645004 
" clip-path="url(#p99102d869b)" style="fill: none; stroke: #cbcbcb"/>
     </g>
     <g id="text_7">
      <!-- −2 -->
      <g style="fill: #262626" transform="translate(15.088281 194.581801)scale(0.11 -0.11)">
       <defs>
        <path id="ArialMT-32" d="M 3222 541 
L 3222 0 
L 194 0 
Q 188 203 259 391 
Q 375 700 629 1000 
Q 884 1300 1366 1694 
Q 2113 2306 2375 2664 
Q 2638 3022 2638 3341 
Q 2638 3675 2398 3904 
Q 2159 4134 1775 4134 
Q 1369 4134 1125 3890 
Q 881 3647 878 3216 
L 300 3275 
Q 359 3922 746 4261 
Q 1134 4600 1788 4600 
Q 2447 4600 2831 4234 
Q 3216 3869 3216 3328 
Q 3216 3053 3103 2787 
Q 2991 2522 2730 2228 
Q 2469 1934 1863 1422 
Q 1356 997 1212 845 
Q 1069 694 975 541 
L 3222 541 
z
" transform="scale(0.015625)"/>
       </defs>
       <use xlink:href="#ArialMT-2212"/>
       <use xlink:href="#ArialMT-32" x="58.398438"/>
      </g>
     </g>
    </g>
    <g id="ytick_3">
     <g id="line2d_3">
      <path d="M 34.63 145.850092 
L 1064.88 145.850092 
" clip-path="url(#p99102d869b)" style="fill: none; stroke: #cbcbcb"/>
     </g>
     <g id="text_8">
      <!-- 0 -->
      <g style="fill: #262626" transform="translate(21.512969 149.786889)scale(0.11 -0.11)">
       <defs>
        <path id="ArialMT-30" d="M 266 2259 
Q 266 3072 433 3567 
Q 600 4063 929 4331 
Q 1259 4600 1759 4600 
Q 2128 4600 2406 4451 
Q 2684 4303 2865 4023 
Q 3047 3744 3150 3342 
Q 3253 2941 3253 2259 
Q 3253 1453 3087 958 
Q 2922 463 2592 192 
Q 2263 -78 1759 -78 
Q 1097 -78 719 397 
Q 266 969 266 2259 
z
M 844 2259 
Q 844 1131 1108 757 
Q 1372 384 1759 384 
Q 2147 384 2411 759 
Q 2675 1134 2675 2259 
Q 2675 3391 2411 3762 
Q 2147 4134 1753 4134 
Q 1366 4134 1134 3806 
Q 844 3388 844 2259 
z
" transform="scale(0.015625)"/>
       </defs>
       <use xlink:href="#ArialMT-30"/>
      </g>
     </g>
    </g>
    <g id="ytick_4">
     <g id="line2d_4">
      <path d="M 34.63 101.05518 
L 1064.88 101.05518 
" clip-path="url(#p99102d869b)" style="fill: none; stroke: #cbcbcb"/>
     </g>
     <g id="text_9">
      <!-- 2 -->
      <g style="fill: #262626" transform="translate(21.512969 104.991977)scale(0.11 -0.11)">
       <use xlink:href="#ArialMT-32"/>
      </g>
     </g>
    </g>
    <g id="ytick_5">
     <g id="line2d_5">
      <path d="M 34.63 56.260268 
L 1064.88 56.260268 
" clip-path="url(#p99102d869b)" style="fill: none; stroke: #cbcbcb"/>
     </g>
     <g id="text_10">
      <!-- 4 -->
      <g style="fill: #262626" transform="translate(21.512969 60.197064)scale(0.11 -0.11)">
       <use xlink:href="#ArialMT-34"/>
      </g>
     </g>
    </g>
   </g>
   <g id="PolyCollection_1">
    <defs>
     <path id="mccf24a0a2a" d="M 137.992208 -68.677128 
L 137.317792 -68.677128 
L 137.137605 -69.91992 
L 136.887036 -71.162712 
L 136.552278 -72.405503 
L 136.12319 -73.648295 
L 135.596429 -74.891087 
L 134.978522 -76.133879 
L 134.288075 -77.376671 
L 133.556274 -78.619463 
L 132.824925 -79.862255 
L 132.141666 -81.105047 
L 131.552613 -82.347839 
L 131.093331 -83.590631 
L 130.779676 -84.833423 
L 130.600336 -86.076215 
L 130.512911 -87.319007 
L 130.444902 -88.561799 
L 130.300264 -89.804591 
L 129.971235 -91.047382 
L 129.354215 -92.290174 
L 128.367572 -93.532966 
L 126.968611 -94.775758 
L 125.166615 -96.01855 
L 123.029006 -97.261342 
L 120.67849 -98.504134 
L 118.280435 -99.746926 
L 116.021668 -100.989718 
L 114.083804 -102.23251 
L 112.615777 -103.475302 
L 111.710803 -104.718094 
L 111.392294 -105.960886 
L 111.611487 -107.203678 
L 112.257039 -108.44647 
L 113.174308 -109.689262 
L 114.190219 -110.932053 
L 115.138735 -112.174845 
L 115.88231 -113.417637 
L 116.325937 -114.660429 
L 116.422175 -115.903221 
L 116.167425 -117.146013 
L 115.59134 -118.388805 
L 114.742315 -119.631597 
L 113.672547 -120.874389 
L 112.425888 -122.117181 
L 111.030907 -123.359973 
L 109.50024 -124.602765 
L 107.835686 -125.845557 
L 106.037061 -127.088349 
L 104.111876 -128.331141 
L 102.082773 -129.573932 
L 99.990472 -130.816724 
L 97.891441 -132.059516 
L 95.851143 -133.302308 
L 93.93501 -134.5451 
L 92.199653 -135.787892 
L 90.686308 -137.030684 
L 89.417218 -138.273476 
L 88.394266 -139.516268 
L 87.598235 -140.75906 
L 86.987063 -142.001852 
L 86.492529 -143.244644 
L 86.016502 -144.487436 
L 85.429683 -145.730228 
L 84.576781 -146.97302 
L 83.291611 -148.215812 
L 81.423442 -149.458603 
L 78.872228 -150.701395 
L 75.62623 -151.944187 
L 71.792282 -153.186979 
L 67.608242 -154.429771 
L 63.429817 -155.672563 
L 59.689903 -156.915355 
L 56.83632 -158.158147 
L 55.260705 -159.400939 
L 55.235 -160.643731 
L 56.870559 -161.886523 
L 60.108786 -163.129315 
L 64.74338 -164.372107 
L 70.46581 -165.614899 
L 76.920475 -166.857691 
L 83.755673 -168.100483 
L 90.6604 -169.343274 
L 97.383288 -170.586066 
L 103.735868 -171.828858 
L 109.585987 -173.07165 
L 114.847748 -174.314442 
L 119.472571 -175.557234 
L 123.44313 -176.800026 
L 126.769603 -178.042818 
L 129.486474 -179.28561 
L 131.648371 -180.528402 
L 133.324313 -181.771194 
L 134.590828 -183.013986 
L 135.525046 -184.256778 
L 136.198899 -185.49957 
L 136.67521 -186.742362 
L 137.00584 -187.985153 
L 137.231613 -189.227945 
L 137.383421 -190.470737 
L 137.483929 -191.713529 
L 137.826071 -191.713529 
L 137.826071 -191.713529 
L 137.926579 -190.470737 
L 138.078387 -189.227945 
L 138.30416 -187.985153 
L 138.63479 -186.742362 
L 139.111101 -185.49957 
L 139.784954 -184.256778 
L 140.719172 -183.013986 
L 141.985687 -181.771194 
L 143.661629 -180.528402 
L 145.823526 -179.28561 
L 148.540397 -178.042818 
L 151.86687 -176.800026 
L 155.837429 -175.557234 
L 160.462252 -174.314442 
L 165.724013 -173.07165 
L 171.574132 -171.828858 
L 177.926712 -170.586066 
L 184.6496 -169.343274 
L 191.554327 -168.100483 
L 198.389525 -166.857691 
L 204.84419 -165.614899 
L 210.56662 -164.372107 
L 215.201214 -163.129315 
L 218.439441 -161.886523 
L 220.075 -160.643731 
L 220.049295 -159.400939 
L 218.47368 -158.158147 
L 215.620097 -156.915355 
L 211.880183 -155.672563 
L 207.701758 -154.429771 
L 203.517718 -153.186979 
L 199.68377 -151.944187 
L 196.437772 -150.701395 
L 193.886558 -149.458603 
L 192.018389 -148.215812 
L 190.733219 -146.97302 
L 189.880317 -145.730228 
L 189.293498 -144.487436 
L 188.817471 -143.244644 
L 188.322937 -142.001852 
L 187.711765 -140.75906 
L 186.915734 -139.516268 
L 185.892782 -138.273476 
L 184.623692 -137.030684 
L 183.110347 -135.787892 
L 181.37499 -134.5451 
L 179.458857 -133.302308 
L 177.418559 -132.059516 
L 175.319528 -130.816724 
L 173.227227 -129.573932 
L 171.198124 -128.331141 
L 169.272939 -127.088349 
L 167.474314 -125.845557 
L 165.80976 -124.602765 
L 164.279093 -123.359973 
L 162.884112 -122.117181 
L 161.637453 -120.874389 
L 160.567685 -119.631597 
L 159.71866 -118.388805 
L 159.142575 -117.146013 
L 158.887825 -115.903221 
L 158.984063 -114.660429 
L 159.42769 -113.417637 
L 160.171265 -112.174845 
L 161.119781 -110.932053 
L 162.135692 -109.689262 
L 163.052961 -108.44647 
L 163.698513 -107.203678 
L 163.917706 -105.960886 
L 163.599197 -104.718094 
L 162.694223 -103.475302 
L 161.226196 -102.23251 
L 159.288332 -100.989718 
L 157.029565 -99.746926 
L 154.63151 -98.504134 
L 152.280994 -97.261342 
L 150.143385 -96.01855 
L 148.341389 -94.775758 
L 146.942428 -93.532966 
L 145.955785 -92.290174 
L 145.338765 -91.047382 
L 145.009736 -89.804591 
L 144.865098 -88.561799 
L 144.797089 -87.319007 
L 144.709664 -86.076215 
L 144.530324 -84.833423 
L 144.216669 -83.590631 
L 143.757387 -82.347839 
L 143.168334 -81.105047 
L 142.485075 -79.862255 
L 141.753726 -78.619463 
L 141.021925 -77.376671 
L 140.331478 -76.133879 
L 139.713571 -74.891087 
L 139.18681 -73.648295 
L 138.757722 -72.405503 
L 138.422964 -71.162712 
L 138.172395 -69.91992 
L 137.992208 -68.677128 
z
" style="stroke: #484848; stroke-width: 3"/>
    </defs>
    <g clip-path="url(#p99102d869b)">
     <use xlink:href="#mccf24a0a2a" x="0" y="288" style="fill: #cb3335; stroke: #484848; stroke-width: 3"/>
    </g>
   </g>
   <g id="PolyCollection_2">
    <defs>
     <path id="m2ef9504133" d="M 343.910071 -41.830909 
L 343.499929 -41.830909 
L 343.39368 -43.074162 
L 343.248181 -44.317414 
L 343.056866 -45.560667 
L 342.815513 -46.803919 
L 342.5237 -48.047172 
L 342.186054 -49.290424 
L 341.812945 -50.533677 
L 341.420351 -51.776929 
L 341.028724 -53.020182 
L 340.660903 -54.263434 
L 340.339345 -55.506687 
L 340.08314 -56.749939 
L 339.905359 -57.993192 
L 339.811236 -59.236444 
L 339.797541 -60.479697 
L 339.853251 -61.722949 
L 339.961387 -62.966202 
L 340.101648 -64.209454 
L 340.253403 -65.452707 
L 340.39852 -66.695959 
L 340.523643 -67.939212 
L 340.621591 -69.182464 
L 340.691754 -70.425717 
L 340.739488 -71.668969 
L 340.774657 -72.912222 
L 340.809596 -74.155474 
L 340.856834 -75.398727 
L 340.926946 -76.641979 
L 341.026887 -77.885232 
L 341.159031 -79.128484 
L 341.321032 -80.371737 
L 341.50644 -81.614989 
L 341.705891 -82.858242 
L 341.908593 -84.101494 
L 342.103832 -85.344747 
L 342.28228 -86.587999 
L 342.436949 -87.831252 
L 342.56373 -89.074504 
L 342.661506 -90.317757 
L 342.731875 -91.561009 
L 342.77853 -92.804262 
L 342.806383 -94.047514 
L 342.820543 -95.290767 
L 342.825314 -96.534019 
L 342.8234 -97.777272 
L 342.815468 -99.020524 
L 342.800177 -100.263777 
L 342.774679 -101.507029 
L 342.73547 -102.750282 
L 342.679397 -103.993534 
L 342.604586 -105.236787 
L 342.511068 -106.480039 
L 342.400958 -107.723292 
L 342.278142 -108.966544 
L 342.14754 -110.209797 
L 342.014084 -111.453049 
L 341.881628 -112.696302 
L 341.751995 -113.939554 
L 341.62435 -115.182807 
L 341.495015 -116.42606 
L 341.357739 -117.669312 
L 341.204335 -118.912565 
L 341.025489 -120.155817 
L 340.811485 -121.39907 
L 340.552563 -122.642322 
L 340.238631 -123.885575 
L 339.85816 -125.128827 
L 339.396133 -126.37208 
L 338.831079 -127.615332 
L 338.131307 -128.858585 
L 337.250639 -130.101837 
L 336.124144 -131.34509 
L 334.664771 -132.588342 
L 332.76218 -133.831595 
L 330.285598 -135.074847 
L 327.092752 -136.3181 
L 323.046687 -137.561352 
L 318.041192 -138.804605 
L 312.033447 -140.047857 
L 305.079663 -141.29111 
L 297.36645 -142.534362 
L 289.228639 -143.777615 
L 281.144376 -145.020867 
L 273.701349 -146.26412 
L 267.533998 -147.507372 
L 263.239184 -148.750625 
L 261.285 -149.993877 
L 261.931558 -151.23713 
L 265.181954 -152.480382 
L 270.775663 -153.723635 
L 278.226893 -154.966887 
L 286.899677 -156.21014 
L 296.10309 -157.453392 
L 305.186293 -158.696645 
L 313.615045 -159.939897 
L 321.01778 -161.18315 
L 327.197853 -162.426402 
L 332.11653 -163.669655 
L 335.856529 -164.912907 
L 351.553471 -164.912907 
L 351.553471 -164.912907 
L 355.29347 -163.669655 
L 360.212147 -162.426402 
L 366.39222 -161.18315 
L 373.794955 -159.939897 
L 382.223707 -158.696645 
L 391.30691 -157.453392 
L 400.510323 -156.21014 
L 409.183107 -154.966887 
L 416.634337 -153.723635 
L 422.228046 -152.480382 
L 425.478442 -151.23713 
L 426.125 -149.993877 
L 424.170816 -148.750625 
L 419.876002 -147.507372 
L 413.708651 -146.26412 
L 406.265624 -145.020867 
L 398.181361 -143.777615 
L 390.04355 -142.534362 
L 382.330337 -141.29111 
L 375.376553 -140.047857 
L 369.368808 -138.804605 
L 364.363313 -137.561352 
L 360.317248 -136.3181 
L 357.124402 -135.074847 
L 354.64782 -133.831595 
L 352.745229 -132.588342 
L 351.285856 -131.34509 
L 350.159361 -130.101837 
L 349.278693 -128.858585 
L 348.578921 -127.615332 
L 348.013867 -126.37208 
L 347.55184 -125.128827 
L 347.171369 -123.885575 
L 346.857437 -122.642322 
L 346.598515 -121.39907 
L 346.384511 -120.155817 
L 346.205665 -118.912565 
L 346.052261 -117.669312 
L 345.914985 -116.42606 
L 345.78565 -115.182807 
L 345.658005 -113.939554 
L 345.528372 -112.696302 
L 345.395916 -111.453049 
L 345.26246 -110.209797 
L 345.131858 -108.966544 
L 345.009042 -107.723292 
L 344.898932 -106.480039 
L 344.805414 -105.236787 
L 344.730603 -103.993534 
L 344.67453 -102.750282 
L 344.635321 -101.507029 
L 344.609823 -100.263777 
L 344.594532 -99.020524 
L 344.5866 -97.777272 
L 344.584686 -96.534019 
L 344.589457 -95.290767 
L 344.603617 -94.047514 
L 344.63147 -92.804262 
L 344.678125 -91.561009 
L 344.748494 -90.317757 
L 344.84627 -89.074504 
L 344.973051 -87.831252 
L 345.12772 -86.587999 
L 345.306168 -85.344747 
L 345.501407 -84.101494 
L 345.704109 -82.858242 
L 345.90356 -81.614989 
L 346.088968 -80.371737 
L 346.250969 -79.128484 
L 346.383113 -77.885232 
L 346.483054 -76.641979 
L 346.553166 -75.398727 
L 346.600404 -74.155474 
L 346.635343 -72.912222 
L 346.670512 -71.668969 
L 346.718246 -70.425717 
L 346.788409 -69.182464 
L 346.886357 -67.939212 
L 347.01148 -66.695959 
L 347.156597 -65.452707 
L 347.308352 -64.209454 
L 347.448613 -62.966202 
L 347.556749 -61.722949 
L 347.612459 -60.479697 
L 347.598764 -59.236444 
L 347.504641 -57.993192 
L 347.32686 -56.749939 
L 347.070655 -55.506687 
L 346.749097 -54.263434 
L 346.381276 -53.020182 
L 345.989649 -51.776929 
L 345.597055 -50.533677 
L 345.223946 -49.290424 
L 344.8863 -48.047172 
L 344.594487 -46.803919 
L 344.353134 -45.560667 
L 344.161819 -44.317414 
L 344.01632 -43.074162 
L 343.910071 -41.830909 
z
" style="stroke: #484848; stroke-width: 3"/>
    </defs>
    <g clip-path="url(#p99102d869b)">
     <use xlink:href="#m2ef9504133" x="0" y="288" style="fill: #477ca8; stroke: #484848; stroke-width: 3"/>
    </g>
   </g>
   <g id="PolyCollection_3">
    <defs>
     <path id="ma7cc75740e" d="M 550.379301 -94.996135 
L 549.130699 -94.996135 
L 548.676694 -96.404751 
L 547.961631 -97.813366 
L 546.881314 -99.221982 
L 545.315472 -100.630598 
L 543.137769 -102.039214 
L 540.231272 -103.447829 
L 536.507981 -104.856445 
L 531.92935 -106.265061 
L 526.52361 -107.673676 
L 520.39544 -109.082292 
L 513.724649 -110.490908 
L 506.752709 -111.899524 
L 499.758766 -113.308139 
L 493.029231 -114.716755 
L 486.826506 -116.125371 
L 481.362382 -117.533986 
L 476.780365 -118.942602 
L 473.149026 -120.351218 
L 470.466233 -121.759834 
L 468.67219 -123.168449 
L 467.667899 -124.577065 
L 467.335 -125.985681 
L 467.553074 -127.394296 
L 468.211325 -128.802912 
L 469.213302 -130.211528 
L 470.4755 -131.620144 
L 471.922709 -133.028759 
L 473.483939 -134.437375 
L 475.092097 -135.845991 
L 476.688407 -137.254606 
L 478.229858 -138.663222 
L 479.696042 -140.071838 
L 481.091602 -141.480454 
L 482.442365 -142.889069 
L 483.786093 -144.297685 
L 485.161333 -145.706301 
L 486.598738 -147.114916 
L 488.118098 -148.523532 
L 489.731647 -149.932148 
L 491.451268 -151.340764 
L 493.295313 -152.749379 
L 495.290868 -154.157995 
L 497.469232 -155.566611 
L 499.855487 -156.975226 
L 502.455745 -158.383842 
L 505.246983 -159.792458 
L 508.173581 -161.201074 
L 511.152359 -162.609689 
L 514.08493 -164.018305 
L 516.873939 -165.426921 
L 519.438874 -166.835536 
L 521.727752 -168.244152 
L 523.722513 -169.652768 
L 525.437692 -171.061384 
L 526.913342 -172.469999 
L 528.20412 -173.878615 
L 529.366956 -175.287231 
L 530.449891 -176.695847 
L 531.484368 -178.104462 
L 532.482469 -179.513078 
L 533.439239 -180.921694 
L 534.338905 -182.330309 
L 535.162815 -183.738925 
L 535.896819 -185.147541 
L 536.536441 -186.556157 
L 537.089243 -187.964772 
L 537.574581 -189.373388 
L 538.021335 -190.782004 
L 538.464035 -192.190619 
L 538.937693 -193.599235 
L 539.471752 -195.007851 
L 540.084054 -196.416467 
L 540.77627 -197.825082 
L 541.532402 -199.233698 
L 542.321353 -200.642314 
L 543.103382 -202.050929 
L 543.838856 -203.459545 
L 544.496802 -204.868161 
L 545.060719 -206.276777 
L 545.530126 -207.685392 
L 545.917801 -209.094008 
L 546.244146 -210.502624 
L 546.530886 -211.911239 
L 546.796146 -213.319855 
L 547.052039 -214.728471 
L 547.304745 -216.137087 
L 547.556122 -217.545702 
L 547.805651 -218.954318 
L 548.051775 -220.362934 
L 548.292368 -221.771549 
L 548.5246 -223.180165 
L 548.744734 -224.588781 
L 548.948297 -225.997397 
L 549.130715 -227.406012 
L 549.288217 -228.814628 
L 549.418655 -230.223244 
L 549.521938 -231.631859 
L 549.599961 -233.040475 
L 549.656117 -234.449091 
L 549.853883 -234.449091 
L 549.853883 -234.449091 
L 549.910039 -233.040475 
L 549.988062 -231.631859 
L 550.091345 -230.223244 
L 550.221783 -228.814628 
L 550.379285 -227.406012 
L 550.561703 -225.997397 
L 550.765266 -224.588781 
L 550.9854 -223.180165 
L 551.217632 -221.771549 
L 551.458225 -220.362934 
L 551.704349 -218.954318 
L 551.953878 -217.545702 
L 552.205255 -216.137087 
L 552.457961 -214.728471 
L 552.713854 -213.319855 
L 552.979114 -211.911239 
L 553.265854 -210.502624 
L 553.592199 -209.094008 
L 553.979874 -207.685392 
L 554.449281 -206.276777 
L 555.013198 -204.868161 
L 555.671144 -203.459545 
L 556.406618 -202.050929 
L 557.188647 -200.642314 
L 557.977598 -199.233698 
L 558.73373 -197.825082 
L 559.425946 -196.416467 
L 560.038248 -195.007851 
L 560.572307 -193.599235 
L 561.045965 -192.190619 
L 561.488665 -190.782004 
L 561.935419 -189.373388 
L 562.420757 -187.964772 
L 562.973559 -186.556157 
L 563.613181 -185.147541 
L 564.347185 -183.738925 
L 565.171095 -182.330309 
L 566.070761 -180.921694 
L 567.027531 -179.513078 
L 568.025632 -178.104462 
L 569.060109 -176.695847 
L 570.143044 -175.287231 
L 571.30588 -173.878615 
L 572.596658 -172.469999 
L 574.072308 -171.061384 
L 575.787487 -169.652768 
L 577.782248 -168.244152 
L 580.071126 -166.835536 
L 582.636061 -165.426921 
L 585.42507 -164.018305 
L 588.357641 -162.609689 
L 591.336419 -161.201074 
L 594.263017 -159.792458 
L 597.054255 -158.383842 
L 599.654513 -156.975226 
L 602.040768 -155.566611 
L 604.219132 -154.157995 
L 606.214687 -152.749379 
L 608.058732 -151.340764 
L 609.778353 -149.932148 
L 611.391902 -148.523532 
L 612.911262 -147.114916 
L 614.348667 -145.706301 
L 615.723907 -144.297685 
L 617.067635 -142.889069 
L 618.418398 -141.480454 
L 619.813958 -140.071838 
L 621.280142 -138.663222 
L 622.821593 -137.254606 
L 624.417903 -135.845991 
L 626.026061 -134.437375 
L 627.587291 -133.028759 
L 629.0345 -131.620144 
L 630.296698 -130.211528 
L 631.298675 -128.802912 
L 631.956926 -127.394296 
L 632.175 -125.985681 
L 631.842101 -124.577065 
L 630.83781 -123.168449 
L 629.043767 -121.759834 
L 626.360974 -120.351218 
L 622.729635 -118.942602 
L 618.147618 -117.533986 
L 612.683494 -116.125371 
L 606.480769 -114.716755 
L 599.751234 -113.308139 
L 592.757291 -111.899524 
L 585.785351 -110.490908 
L 579.11456 -109.082292 
L 572.98639 -107.673676 
L 567.58065 -106.265061 
L 563.002019 -104.856445 
L 559.278728 -103.447829 
L 556.372231 -102.039214 
L 554.194528 -100.630598 
L 552.628686 -99.221982 
L 551.548369 -97.813366 
L 550.833306 -96.404751 
L 550.379301 -94.996135 
z
" style="stroke: #484848; stroke-width: 3"/>
    </defs>
    <g clip-path="url(#p99102d869b)">
     <use xlink:href="#ma7cc75740e" x="0" y="288" style="fill: #59a257; stroke: #484848; stroke-width: 3"/>
    </g>
   </g>
   <g id="PolyCollection_4">
    <defs>
     <path id="m7c60f8662a" d="M 757.285631 -107.264167 
L 754.324369 -107.264167 
L 753.78211 -108.122257 
L 753.078429 -108.980347 
L 752.178542 -109.838438 
L 751.044339 -110.696528 
L 749.635326 -111.554619 
L 747.910014 -112.412709 
L 745.827799 -113.270799 
L 743.351329 -114.12889 
L 740.449361 -114.98698 
L 737.100009 -115.845071 
L 733.294253 -116.703161 
L 729.039506 -117.561251 
L 724.362951 -118.419342 
L 719.3143 -119.277432 
L 713.967602 -120.135523 
L 708.421698 -120.993613 
L 702.798989 -121.851703 
L 697.242288 -122.709794 
L 691.909663 -123.567884 
L 686.967422 -124.425974 
L 682.581583 -125.284065 
L 678.908415 -126.142155 
L 676.084818 -127.000246 
L 674.219383 -127.858336 
L 673.385 -128.716426 
L 673.613769 -129.574517 
L 674.894739 -130.432607 
L 677.174729 -131.290698 
L 680.362145 -132.148788 
L 684.333402 -133.006878 
L 688.941282 -133.864969 
L 694.0244 -134.723059 
L 699.416885 -135.58115 
L 704.957439 -136.43924 
L 710.497075 -137.29733 
L 715.905075 -138.155421 
L 721.072922 -139.013511 
L 725.916217 -139.871601 
L 730.374777 -140.729692 
L 734.411251 -141.587782 
L 738.008654 -142.445873 
L 741.167237 -143.303963 
L 743.901064 -144.162053 
L 746.234606 -145.020144 
L 748.199563 -145.878234 
L 749.832062 -146.736325 
L 751.170297 -147.594415 
L 752.252624 -148.452505 
L 753.116095 -149.310596 
L 753.795377 -150.168686 
L 754.322018 -151.026777 
L 754.723983 -151.884867 
L 755.025418 -152.742957 
L 755.246569 -153.601048 
L 755.403811 -154.459138 
L 755.509728 -155.317228 
L 755.573201 -156.175319 
L 755.599455 -157.033409 
L 755.590051 -157.8915 
L 755.542792 -158.74959 
L 755.45157 -159.60768 
L 755.306176 -160.465771 
L 755.092135 -161.323861 
L 754.790668 -162.181952 
L 754.378879 -163.040042 
L 753.830306 -163.898132 
L 753.115952 -164.756223 
L 752.205903 -165.614313 
L 751.071578 -166.472404 
L 749.688578 -167.330494 
L 748.040014 -168.188584 
L 746.120066 -169.046675 
L 743.937427 -169.904765 
L 741.518201 -170.762855 
L 738.907786 -171.620946 
L 736.171299 -172.479036 
L 733.392206 -173.337127 
L 730.668978 -174.195217 
L 728.109844 -175.053307 
L 725.825956 -175.911398 
L 723.923523 -176.769488 
L 722.495679 -177.627579 
L 721.614943 -178.485669 
L 721.32712 -179.343759 
L 721.647351 -180.20185 
L 722.558795 -181.05994 
L 724.014096 -181.918031 
L 725.93946 -182.776121 
L 728.240853 -183.634211 
L 730.811595 -184.492302 
L 733.540498 -185.350392 
L 736.319694 -186.208482 
L 739.051398 -187.066573 
L 741.653065 -187.924663 
L 744.060619 -188.782754 
L 746.229727 -189.640844 
L 748.135291 -190.498934 
L 749.7695 -191.357025 
L 751.138897 -192.215115 
L 760.471103 -192.215115 
L 760.471103 -192.215115 
L 761.8405 -191.357025 
L 763.474709 -190.498934 
L 765.380273 -189.640844 
L 767.549381 -188.782754 
L 769.956935 -187.924663 
L 772.558602 -187.066573 
L 775.290306 -186.208482 
L 778.069502 -185.350392 
L 780.798405 -184.492302 
L 783.369147 -183.634211 
L 785.67054 -182.776121 
L 787.595904 -181.918031 
L 789.051205 -181.05994 
L 789.962649 -180.20185 
L 790.28288 -179.343759 
L 789.995057 -178.485669 
L 789.114321 -177.627579 
L 787.686477 -176.769488 
L 785.784044 -175.911398 
L 783.500156 -175.053307 
L 780.941022 -174.195217 
L 778.217794 -173.337127 
L 775.438701 -172.479036 
L 772.702214 -171.620946 
L 770.091799 -170.762855 
L 767.672573 -169.904765 
L 765.489934 -169.046675 
L 763.569986 -168.188584 
L 761.921422 -167.330494 
L 760.538422 -166.472404 
L 759.404097 -165.614313 
L 758.494048 -164.756223 
L 757.779694 -163.898132 
L 757.231121 -163.040042 
L 756.819332 -162.181952 
L 756.517865 -161.323861 
L 756.303824 -160.465771 
L 756.15843 -159.60768 
L 756.067208 -158.74959 
L 756.019949 -157.8915 
L 756.010545 -157.033409 
L 756.036799 -156.175319 
L 756.100272 -155.317228 
L 756.206189 -154.459138 
L 756.363431 -153.601048 
L 756.584582 -152.742957 
L 756.886017 -151.884867 
L 757.287982 -151.026777 
L 757.814623 -150.168686 
L 758.493905 -149.310596 
L 759.357376 -148.452505 
L 760.439703 -147.594415 
L 761.777938 -146.736325 
L 763.410437 -145.878234 
L 765.375394 -145.020144 
L 767.708936 -144.162053 
L 770.442763 -143.303963 
L 773.601346 -142.445873 
L 777.198749 -141.587782 
L 781.235223 -140.729692 
L 785.693783 -139.871601 
L 790.537078 -139.013511 
L 795.704925 -138.155421 
L 801.112925 -137.29733 
L 806.652561 -136.43924 
L 812.193115 -135.58115 
L 817.5856 -134.723059 
L 822.668718 -133.864969 
L 827.276598 -133.006878 
L 831.247855 -132.148788 
L 834.435271 -131.290698 
L 836.715261 -130.432607 
L 837.996231 -129.574517 
L 838.225 -128.716426 
L 837.390617 -127.858336 
L 835.525182 -127.000246 
L 832.701585 -126.142155 
L 829.028417 -125.284065 
L 824.642578 -124.425974 
L 819.700337 -123.567884 
L 814.367712 -122.709794 
L 808.811011 -121.851703 
L 803.188302 -120.993613 
L 797.642398 -120.135523 
L 792.2957 -119.277432 
L 787.247049 -118.419342 
L 782.570494 -117.561251 
L 778.315747 -116.703161 
L 774.509991 -115.845071 
L 771.160639 -114.98698 
L 768.258671 -114.12889 
L 765.782201 -113.270799 
L 763.699986 -112.412709 
L 761.974674 -111.554619 
L 760.565661 -110.696528 
L 759.431458 -109.838438 
L 758.531571 -108.980347 
L 757.82789 -108.122257 
L 757.285631 -107.264167 
z
" style="stroke: #484848; stroke-width: 3"/>
    </defs>
    <g clip-path="url(#p99102d869b)">
     <use xlink:href="#m7c60f8662a" x="0" y="288" style="fill: #905998; stroke: #484848; stroke-width: 3"/>
    </g>
   </g>
   <g id="PolyCollection_5">
    <defs>
     <path id="m50236c84a0" d="M 962.093887 -86.55842 
L 961.616113 -86.55842 
L 961.467057 -87.925853 
L 961.246521 -89.293287 
L 960.932264 -90.66072 
L 960.500631 -92.028154 
L 959.92873 -93.395587 
L 959.197096 -94.763021 
L 958.292429 -96.130454 
L 957.209797 -97.497888 
L 955.9536 -98.865321 
L 954.536713 -100.232755 
L 952.977574 -101.600188 
L 951.295478 -102.967622 
L 949.505053 -104.335055 
L 947.611402 -105.702489 
L 945.607604 -107.069922 
L 943.475928 -108.437356 
L 941.193169 -109.804789 
L 938.739152 -111.172223 
L 936.106122 -112.539656 
L 933.30587 -113.90709 
L 930.37158 -115.274524 
L 927.352615 -116.641957 
L 924.302666 -118.009391 
L 921.264128 -119.376824 
L 918.253466 -120.744258 
L 915.252853 -122.111691 
L 912.212063 -123.479125 
L 909.061773 -124.846558 
L 905.735863 -126.213992 
L 902.19729 -127.581425 
L 898.460644 -128.948859 
L 894.605279 -130.316292 
L 890.775568 -131.683726 
L 887.168425 -133.051159 
L 884.01145 -134.418593 
L 881.536746 -135.786026 
L 879.955281 -137.15346 
L 879.435 -138.520893 
L 880.083894 -139.888327 
L 881.937894 -141.25576 
L 884.953447 -142.623194 
L 889.005607 -143.990627 
L 893.89355 -145.358061 
L 899.35543 -146.725494 
L 905.092993 -148.092928 
L 910.803621 -149.460361 
L 916.214639 -150.827795 
L 921.113161 -152.195229 
L 925.36528 -153.562662 
L 928.921081 -154.930096 
L 931.805654 -156.297529 
L 934.099799 -157.664963 
L 935.916095 -159.032396 
L 937.376097 -160.39983 
L 938.592838 -161.767263 
L 939.66049 -163.134697 
L 940.650821 -164.50213 
L 941.614655 -165.869564 
L 942.586016 -167.236997 
L 943.586845 -168.604431 
L 944.630786 -169.971864 
L 945.725247 -171.339298 
L 946.871608 -172.706731 
L 948.06406 -174.074165 
L 949.287968 -175.441598 
L 950.518915 -176.809032 
L 951.723397 -178.176465 
L 952.861747 -179.543899 
L 953.893127 -180.911332 
L 954.781695 -182.278766 
L 955.502565 -183.646199 
L 956.046045 -185.013633 
L 956.418977 -186.381066 
L 956.642673 -187.7485 
L 956.747797 -189.115934 
L 956.767275 -190.483367 
L 956.728874 -191.850801 
L 956.649242 -193.218234 
L 956.531014 -194.585668 
L 956.363982 -195.953101 
L 956.130487 -197.320535 
L 955.814108 -198.687968 
L 955.409697 -200.055402 
L 954.932088 -201.422835 
L 954.420631 -202.790269 
L 953.937466 -204.157702 
L 953.558927 -205.525136 
L 953.361539 -206.892569 
L 953.405908 -208.260003 
L 953.722837 -209.627436 
L 954.305601 -210.99487 
L 955.110621 -212.362303 
L 956.066265 -213.729737 
L 957.087122 -215.09717 
L 958.089743 -216.464604 
L 959.005817 -217.832037 
L 959.790093 -219.199471 
L 960.422206 -220.566904 
L 960.903399 -221.934338 
L 962.806601 -221.934338 
L 962.806601 -221.934338 
L 963.287794 -220.566904 
L 963.919907 -219.199471 
L 964.704183 -217.832037 
L 965.620257 -216.464604 
L 966.622878 -215.09717 
L 967.643735 -213.729737 
L 968.599379 -212.362303 
L 969.404399 -210.99487 
L 969.987163 -209.627436 
L 970.304092 -208.260003 
L 970.348461 -206.892569 
L 970.151073 -205.525136 
L 969.772534 -204.157702 
L 969.289369 -202.790269 
L 968.777912 -201.422835 
L 968.300303 -200.055402 
L 967.895892 -198.687968 
L 967.579513 -197.320535 
L 967.346018 -195.953101 
L 967.178986 -194.585668 
L 967.060758 -193.218234 
L 966.981126 -191.850801 
L 966.942725 -190.483367 
L 966.962203 -189.115934 
L 967.067327 -187.7485 
L 967.291023 -186.381066 
L 967.663955 -185.013633 
L 968.207435 -183.646199 
L 968.928305 -182.278766 
L 969.816873 -180.911332 
L 970.848253 -179.543899 
L 971.986603 -178.176465 
L 973.191085 -176.809032 
L 974.422032 -175.441598 
L 975.64594 -174.074165 
L 976.838392 -172.706731 
L 977.984753 -171.339298 
L 979.079214 -169.971864 
L 980.123155 -168.604431 
L 981.123984 -167.236997 
L 982.095345 -165.869564 
L 983.059179 -164.50213 
L 984.04951 -163.134697 
L 985.117162 -161.767263 
L 986.333903 -160.39983 
L 987.793905 -159.032396 
L 989.610201 -157.664963 
L 991.904346 -156.297529 
L 994.788919 -154.930096 
L 998.34472 -153.562662 
L 1002.596839 -152.195229 
L 1007.495361 -150.827795 
L 1012.906379 -149.460361 
L 1018.617007 -148.092928 
L 1024.35457 -146.725494 
L 1029.81645 -145.358061 
L 1034.704393 -143.990627 
L 1038.756553 -142.623194 
L 1041.772106 -141.25576 
L 1043.626106 -139.888327 
L 1044.275 -138.520893 
L 1043.754719 -137.15346 
L 1042.173254 -135.786026 
L 1039.69855 -134.418593 
L 1036.541575 -133.051159 
L 1032.934432 -131.683726 
L 1029.104721 -130.316292 
L 1025.249356 -128.948859 
L 1021.51271 -127.581425 
L 1017.974137 -126.213992 
L 1014.648227 -124.846558 
L 1011.497937 -123.479125 
L 1008.457147 -122.111691 
L 1005.456534 -120.744258 
L 1002.445872 -119.376824 
L 999.407334 -118.009391 
L 996.357385 -116.641957 
L 993.33842 -115.274524 
L 990.40413 -113.90709 
L 987.603878 -112.539656 
L 984.970848 -111.172223 
L 982.516831 -109.804789 
L 980.234072 -108.437356 
L 978.102396 -107.069922 
L 976.098598 -105.702489 
L 974.204947 -104.335055 
L 972.414522 -102.967622 
L 970.732426 -101.600188 
L 969.173287 -100.232755 
L 967.7564 -98.865321 
L 966.500203 -97.497888 
L 965.417571 -96.130454 
L 964.512904 -94.763021 
L 963.78127 -93.395587 
L 963.209369 -92.028154 
L 962.777736 -90.66072 
L 962.463479 -89.293287 
L 962.242943 -87.925853 
L 962.093887 -86.55842 
z
" style="stroke: #484848; stroke-width: 3"/>
    </defs>
    <g clip-path="url(#p99102d869b)">
     <use xlink:href="#m50236c84a0" x="0" y="288" style="fill: #df7f20; stroke: #484848; stroke-width: 3"/>
    </g>
   </g>
   <g id="line2d_6">
    <path d="M 137.655 196.083042 
L 137.655 109.180795 
" clip-path="url(#p99102d869b)" style="fill: none; stroke: #484848; stroke-width: 3"/>
   </g>
   <g id="line2d_7">
    <path d="M 137.655 156.770121 
L 137.655 127.802705 
" clip-path="url(#p99102d869b)" style="fill: none; stroke: #484848; stroke-width: 9"/>
   </g>
   <g id="line2d_8">
    <path d="M 343.705 148.736173 
L 343.705 135.981417 
" clip-path="url(#p99102d869b)" style="fill: none; stroke: #484848; stroke-width: 3"/>
   </g>
   <g id="line2d_9">
    <path d="M 343.705 141.261552 
L 343.705 136.147015 
" clip-path="url(#p99102d869b)" style="fill: none; stroke: #484848; stroke-width: 9"/>
   </g>
   <g id="line2d_10">
    <path d="M 549.755 180.109541 
L 549.755 88.902089 
" clip-path="url(#p99102d869b)" style="fill: none; stroke: #484848; stroke-width: 3"/>
   </g>
   <g id="line2d_11">
    <path d="M 549.755 163.737364 
L 549.755 132.357359 
" clip-path="url(#p99102d869b)" style="fill: none; stroke: #484848; stroke-width: 9"/>
   </g>
   <g id="line2d_12">
    <path d="M 755.805 167.841509 
L 755.805 108.679209 
" clip-path="url(#p99102d869b)" style="fill: none; stroke: #484848; stroke-width: 3"/>
   </g>
   <g id="line2d_13">
    <path d="M 755.805 160.124687 
L 755.805 108.679209 
" clip-path="url(#p99102d869b)" style="fill: none; stroke: #484848; stroke-width: 9"/>
   </g>
   <g id="line2d_14">
    <path d="M 961.855 187.086093 
L 961.855 111.836167 
" clip-path="url(#p99102d869b)" style="fill: none; stroke: #484848; stroke-width: 3"/>
   </g>
   <g id="line2d_15">
    <path d="M 961.855 159.263102 
L 961.855 139.841803 
" clip-path="url(#p99102d869b)" style="fill: none; stroke: #484848; stroke-width: 9"/>
   </g>
   <g id="patch_3">
    <path d="M 34.63 255.8 
L 34.63 43.92 
" style="fill: none; stroke: #f0f0f0; stroke-width: 3; stroke-linejoin: miter; stroke-linecap: square"/>
   </g>
   <g id="patch_4">
    <path d="M 1064.88 255.8 
L 1064.88 43.92 
" style="fill: none; stroke: #f0f0f0; stroke-width: 3; stroke-linejoin: miter; stroke-linecap: square"/>
   </g>
   <g id="patch_5">
    <path d="M 34.63 255.8 
L 1064.88 255.8 
" style="fill: none; stroke: #f0f0f0; stroke-width: 3; stroke-linejoin: miter; stroke-linecap: square"/>
   </g>
   <g id="patch_6">
    <path d="M 34.63 43.92 
L 1064.88 43.92 
" style="fill: none; stroke: #f0f0f0; stroke-width: 3; stroke-linejoin: miter; stroke-linecap: square"/>
   </g>
   <g id="PathCollection_1">
    <defs>
     <path id="mf158ad1f69" d="M 0 3 
C 0.795609 3 1.55874 2.683901 2.12132 2.12132 
C 2.683901 1.55874 3 0.795609 3 0 
C 3 -0.795609 2.683901 -1.55874 2.12132 -2.12132 
C 1.55874 -2.683901 0.795609 -3 0 -3 
C -0.795609 -3 -1.55874 -2.683901 -2.12132 -2.12132 
C -2.683901 -1.55874 -3 -0.795609 -3 0 
C -3 0.795609 -2.683901 1.55874 -2.12132 2.12132 
C -1.55874 2.683901 -0.795609 3 0 3 
z
" style="stroke: #484848; stroke-width: 0.5"/>
    </defs>
    <g clip-path="url(#p99102d869b)">
     <use xlink:href="#mf158ad1f69" x="137.655" y="139.700037" style="fill: #ffffff; stroke: #484848; stroke-width: 0.5"/>
    </g>
   </g>
   <g id="PathCollection_2">
    <g clip-path="url(#p99102d869b)">
     <use xlink:href="#mf158ad1f69" x="343.705" y="137.320924" style="fill: #ffffff; stroke: #484848; stroke-width: 0.5"/>
    </g>
   </g>
   <g id="PathCollection_3">
    <g clip-path="url(#p99102d869b)">
     <use xlink:href="#mf158ad1f69" x="549.755" y="149.905698" style="fill: #ffffff; stroke: #484848; stroke-width: 0.5"/>
    </g>
   </g>
   <g id="PathCollection_4">
    <g clip-path="url(#p99102d869b)">
     <use xlink:href="#mf158ad1f69" x="755.805" y="157.552413" style="fill: #ffffff; stroke: #484848; stroke-width: 0.5"/>
    </g>
   </g>
   <g id="PathCollection_5">
    <g clip-path="url(#p99102d869b)">
     <use xlink:href="#mf158ad1f69" x="961.855" y="149.095839" style="fill: #ffffff; stroke: #484848; stroke-width: 0.5"/>
    </g>
   </g>
  </g>
  <g id="text_11">
   <!-- Violin Plot of all Continuous Variables -->
   <g style="fill: #262626" transform="translate(416.035547 16.496719)scale(0.15 -0.15)">
    <defs>
     <path id="ArialMT-56" d="M 1803 0 
L 28 4581 
L 684 4581 
L 1875 1253 
Q 2019 853 2116 503 
Q 2222 878 2363 1253 
L 3600 4581 
L 4219 4581 
L 2425 0 
L 1803 0 
z
" transform="scale(0.015625)"/>
     <path id="ArialMT-69" d="M 425 3934 
L 425 4581 
L 988 4581 
L 988 3934 
L 425 3934 
z
M 425 0 
L 425 3319 
L 988 3319 
L 988 0 
L 425 0 
z
" transform="scale(0.015625)"/>
     <path id="ArialMT-6f" d="M 213 1659 
Q 213 2581 725 3025 
Q 1153 3394 1769 3394 
Q 2453 3394 2887 2945 
Q 3322 2497 3322 1706 
Q 3322 1066 3130 698 
Q 2938 331 2570 128 
Q 2203 -75 1769 -75 
Q 1072 -75 642 372 
Q 213 819 213 1659 
z
M 791 1659 
Q 791 1022 1069 705 
Q 1347 388 1769 388 
Q 2188 388 2466 706 
Q 2744 1025 2744 1678 
Q 2744 2294 2464 2611 
Q 2184 2928 1769 2928 
Q 1347 2928 1069 2612 
Q 791 2297 791 1659 
z
" transform="scale(0.015625)"/>
     <path id="ArialMT-6c" d="M 409 0 
L 409 4581 
L 972 4581 
L 972 0 
L 409 0 
z
" transform="scale(0.015625)"/>
     <path id="ArialMT-6e" d="M 422 0 
L 422 3319 
L 928 3319 
L 928 2847 
Q 1294 3394 1984 3394 
Q 2284 3394 2536 3286 
Q 2788 3178 2913 3003 
Q 3038 2828 3088 2588 
Q 3119 2431 3119 2041 
L 3119 0 
L 2556 0 
L 2556 2019 
Q 2556 2363 2490 2533 
Q 2425 2703 2258 2804 
Q 2091 2906 1866 2906 
Q 1506 2906 1245 2678 
Q 984 2450 984 1813 
L 984 0 
L 422 0 
z
" transform="scale(0.015625)"/>
     <path id="ArialMT-20" transform="scale(0.015625)"/>
     <path id="ArialMT-66" d="M 556 0 
L 556 2881 
L 59 2881 
L 59 3319 
L 556 3319 
L 556 3672 
Q 556 4006 616 4169 
Q 697 4388 901 4523 
Q 1106 4659 1475 4659 
Q 1713 4659 2000 4603 
L 1916 4113 
Q 1741 4144 1584 4144 
Q 1328 4144 1222 4034 
Q 1116 3925 1116 3625 
L 1116 3319 
L 1763 3319 
L 1763 2881 
L 1116 2881 
L 1116 0 
L 556 0 
z
" transform="scale(0.015625)"/>
     <path id="ArialMT-43" d="M 3763 1606 
L 4369 1453 
Q 4178 706 3683 314 
Q 3188 -78 2472 -78 
Q 1731 -78 1267 223 
Q 803 525 561 1097 
Q 319 1669 319 2325 
Q 319 3041 592 3573 
Q 866 4106 1370 4382 
Q 1875 4659 2481 4659 
Q 3169 4659 3637 4309 
Q 4106 3959 4291 3325 
L 3694 3184 
Q 3534 3684 3231 3912 
Q 2928 4141 2469 4141 
Q 1941 4141 1586 3887 
Q 1231 3634 1087 3207 
Q 944 2781 944 2328 
Q 944 1744 1114 1308 
Q 1284 872 1643 656 
Q 2003 441 2422 441 
Q 2931 441 3284 734 
Q 3638 1028 3763 1606 
z
" transform="scale(0.015625)"/>
     <path id="ArialMT-75" d="M 2597 0 
L 2597 488 
Q 2209 -75 1544 -75 
Q 1250 -75 995 37 
Q 741 150 617 320 
Q 494 491 444 738 
Q 409 903 409 1263 
L 409 3319 
L 972 3319 
L 972 1478 
Q 972 1038 1006 884 
Q 1059 663 1231 536 
Q 1403 409 1656 409 
Q 1909 409 2131 539 
Q 2353 669 2445 892 
Q 2538 1116 2538 1541 
L 2538 3319 
L 3100 3319 
L 3100 0 
L 2597 0 
z
" transform="scale(0.015625)"/>
     <path id="ArialMT-73" d="M 197 991 
L 753 1078 
Q 800 744 1014 566 
Q 1228 388 1613 388 
Q 2000 388 2187 545 
Q 2375 703 2375 916 
Q 2375 1106 2209 1216 
Q 2094 1291 1634 1406 
Q 1016 1563 777 1677 
Q 538 1791 414 1992 
Q 291 2194 291 2438 
Q 291 2659 392 2848 
Q 494 3038 669 3163 
Q 800 3259 1026 3326 
Q 1253 3394 1513 3394 
Q 1903 3394 2198 3281 
Q 2494 3169 2634 2976 
Q 2775 2784 2828 2463 
L 2278 2388 
Q 2241 2644 2061 2787 
Q 1881 2931 1553 2931 
Q 1166 2931 1000 2803 
Q 834 2675 834 2503 
Q 834 2394 903 2306 
Q 972 2216 1119 2156 
Q 1203 2125 1616 2013 
Q 2213 1853 2448 1751 
Q 2684 1650 2818 1456 
Q 2953 1263 2953 975 
Q 2953 694 2789 445 
Q 2625 197 2315 61 
Q 2006 -75 1616 -75 
Q 969 -75 630 194 
Q 291 463 197 991 
z
" transform="scale(0.015625)"/>
    </defs>
    <use xlink:href="#ArialMT-56"/>
    <use xlink:href="#ArialMT-69" x="64.949219"/>
    <use xlink:href="#ArialMT-6f" x="87.166016"/>
    <use xlink:href="#ArialMT-6c" x="142.78125"/>
    <use xlink:href="#ArialMT-69" x="164.998047"/>
    <use xlink:href="#ArialMT-6e" x="187.214844"/>
    <use xlink:href="#ArialMT-20" x="242.830078"/>
    <use xlink:href="#ArialMT-50" x="270.613281"/>
    <use xlink:href="#ArialMT-6c" x="337.3125"/>
    <use xlink:href="#ArialMT-6f" x="359.529297"/>
    <use xlink:href="#ArialMT-74" x="415.144531"/>
    <use xlink:href="#ArialMT-20" x="442.927734"/>
    <use xlink:href="#ArialMT-6f" x="470.710938"/>
    <use xlink:href="#ArialMT-66" x="526.326172"/>
    <use xlink:href="#ArialMT-20" x="554.109375"/>
    <use xlink:href="#ArialMT-61" x="581.892578"/>
    <use xlink:href="#ArialMT-6c" x="637.507812"/>
    <use xlink:href="#ArialMT-6c" x="659.724609"/>
    <use xlink:href="#ArialMT-20" x="681.941406"/>
    <use xlink:href="#ArialMT-43" x="709.724609"/>
    <use xlink:href="#ArialMT-6f" x="781.941406"/>
    <use xlink:href="#ArialMT-6e" x="837.556641"/>
    <use xlink:href="#ArialMT-74" x="893.171875"/>
    <use xlink:href="#ArialMT-69" x="920.955078"/>
    <use xlink:href="#ArialMT-6e" x="943.171875"/>
    <use xlink:href="#ArialMT-75" x="998.787109"/>
    <use xlink:href="#ArialMT-6f" x="1054.402344"/>
    <use xlink:href="#ArialMT-75" x="1110.017578"/>
    <use xlink:href="#ArialMT-73" x="1165.632812"/>
    <use xlink:href="#ArialMT-20" x="1215.632812"/>
    <use xlink:href="#ArialMT-56" x="1243.416016"/>
    <use xlink:href="#ArialMT-61" x="1302.740234"/>
    <use xlink:href="#ArialMT-72" x="1358.355469"/>
    <use xlink:href="#ArialMT-69" x="1391.65625"/>
    <use xlink:href="#ArialMT-61" x="1413.873047"/>
    <use xlink:href="#ArialMT-62" x="1469.488281"/>
    <use xlink:href="#ArialMT-6c" x="1525.103516"/>
    <use xlink:href="#ArialMT-65" x="1547.320312"/>
    <use xlink:href="#ArialMT-73" x="1602.935547"/>
   </g>
  </g>
 </g>
 <defs>
  <clipPath id="p99102d869b">
   <rect x="34.63" y="43.92" width="1030.25" height="211.88"/>
  </clipPath>
 </defs>
</svg>
