<?xml version="1.0" encoding="utf-8" standalone="no"?>
<!DOCTYPE svg PUBLIC "-//W3C//DTD SVG 1.1//EN"
  "http://www.w3.org/Graphics/SVG/1.1/DTD/svg11.dtd">
<svg xmlns:xlink="http://www.w3.org/1999/xlink" width="1080pt" height="288pt" viewBox="0 0 1080 288" xmlns="http://www.w3.org/2000/svg" version="1.1">
 <metadata>
  <rdf:RDF xmlns:dc="http://purl.org/dc/elements/1.1/" xmlns:cc="http://creativecommons.org/ns#" xmlns:rdf="http://www.w3.org/1999/02/22-rdf-syntax-ns#">
   <cc:Work>
    <dc:type rdf:resource="http://purl.org/dc/dcmitype/StillImage"/>
    <dc:date>2022-11-06T18:31:27.386236</dc:date>
    <dc:format>image/svg+xml</dc:format>
    <dc:creator>
     <cc:Agent>
      <dc:title>Matplotlib v3.5.3, https://matplotlib.org/</dc:title>
     </cc:Agent>
    </dc:creator>
   </cc:Work>
  </rdf:RDF>
 </metadata>
 <defs>
  <style type="text/css">*{stroke-linejoin: round; stroke-linecap: butt}</style>
 </defs>
 <g id="figure_1">
  <g id="patch_1">
   <path d="M 0 288 
L 1080 288 
L 1080 0 
L 0 0 
z
" style="fill: #f0f0f0"/>
  </g>
  <g id="axes_1">
   <g id="patch_2">
    <path d="M 34.63 255.8 
L 1064.88 255.8 
L 1064.88 43.92 
L 34.63 43.92 
z
" style="fill: #f0f0f0"/>
   </g>
   <g id="matplotlib.axis_1">
    <g id="xtick_1">
     <g id="text_1">
      <!-- CRIM -->
      <g style="fill: #262626" transform="translate(84.967266 270.673594)scale(0.11 -0.11)">
       <defs>
        <path id="ArialMT-43" d="M 3763 1606 
L 4369 1453 
Q 4178 706 3683 314 
Q 3188 -78 2472 -78 
Q 1731 -78 1267 223 
Q 803 525 561 1097 
Q 319 1669 319 2325 
Q 319 3041 592 3573 
Q 866 4106 1370 4382 
Q 1875 4659 2481 4659 
Q 3169 4659 3637 4309 
Q 4106 3959 4291 3325 
L 3694 3184 
Q 3534 3684 3231 3912 
Q 2928 4141 2469 4141 
Q 1941 4141 1586 3887 
Q 1231 3634 1087 3207 
Q 944 2781 944 2328 
Q 944 1744 1114 1308 
Q 1284 872 1643 656 
Q 2003 441 2422 441 
Q 2931 441 3284 734 
Q 3638 1028 3763 1606 
z
" transform="scale(0.015625)"/>
        <path id="ArialMT-52" d="M 503 0 
L 503 4581 
L 2534 4581 
Q 3147 4581 3465 4457 
Q 3784 4334 3975 4021 
Q 4166 3709 4166 3331 
Q 4166 2844 3850 2509 
Q 3534 2175 2875 2084 
Q 3116 1969 3241 1856 
Q 3506 1613 3744 1247 
L 4541 0 
L 3778 0 
L 3172 953 
Q 2906 1366 2734 1584 
Q 2563 1803 2427 1890 
Q 2291 1978 2150 2013 
Q 2047 2034 1813 2034 
L 1109 2034 
L 1109 0 
L 503 0 
z
M 1109 2559 
L 2413 2559 
Q 2828 2559 3062 2645 
Q 3297 2731 3419 2920 
Q 3541 3109 3541 3331 
Q 3541 3656 3305 3865 
Q 3069 4075 2559 4075 
L 1109 4075 
L 1109 2559 
z
" transform="scale(0.015625)"/>
        <path id="ArialMT-49" d="M 597 0 
L 597 4581 
L 1203 4581 
L 1203 0 
L 597 0 
z
" transform="scale(0.015625)"/>
        <path id="ArialMT-4d" d="M 475 0 
L 475 4581 
L 1388 4581 
L 2472 1338 
Q 2622 884 2691 659 
Q 2769 909 2934 1394 
L 4031 4581 
L 4847 4581 
L 4847 0 
L 4263 0 
L 4263 3834 
L 2931 0 
L 2384 0 
L 1059 3900 
L 1059 0 
L 475 0 
z
" transform="scale(0.015625)"/>
       </defs>
       <use xlink:href="#ArialMT-43"/>
       <use xlink:href="#ArialMT-52" x="72.216797"/>
       <use xlink:href="#ArialMT-49" x="144.433594"/>
       <use xlink:href="#ArialMT-4d" x="172.216797"/>
      </g>
     </g>
    </g>
    <g id="xtick_2">
     <g id="text_2">
      <!-- ZN -->
      <g style="fill: #262626" transform="translate(220.470547 270.673594)scale(0.11 -0.11)">
       <defs>
        <path id="ArialMT-5a" d="M 128 0 
L 128 563 
L 2475 3497 
Q 2725 3809 2950 4041 
L 394 4041 
L 394 4581 
L 3675 4581 
L 3675 4041 
L 1103 863 
L 825 541 
L 3750 541 
L 3750 0 
L 128 0 
z
" transform="scale(0.015625)"/>
        <path id="ArialMT-4e" d="M 488 0 
L 488 4581 
L 1109 4581 
L 3516 984 
L 3516 4581 
L 4097 4581 
L 4097 0 
L 3475 0 
L 1069 3600 
L 1069 0 
L 488 0 
z
" transform="scale(0.015625)"/>
       </defs>
       <use xlink:href="#ArialMT-5a"/>
       <use xlink:href="#ArialMT-4e" x="61.083984"/>
      </g>
     </g>
    </g>
    <g id="xtick_3">
     <g id="text_3">
      <!-- INDUS -->
      <g style="fill: #262626" transform="translate(339.470391 270.673594)scale(0.11 -0.11)">
       <defs>
        <path id="ArialMT-44" d="M 494 0 
L 494 4581 
L 2072 4581 
Q 2606 4581 2888 4516 
Q 3281 4425 3559 4188 
Q 3922 3881 4101 3404 
Q 4281 2928 4281 2316 
Q 4281 1794 4159 1391 
Q 4038 988 3847 723 
Q 3656 459 3429 307 
Q 3203 156 2883 78 
Q 2563 0 2147 0 
L 494 0 
z
M 1100 541 
L 2078 541 
Q 2531 541 2789 625 
Q 3047 709 3200 863 
Q 3416 1078 3536 1442 
Q 3656 1806 3656 2325 
Q 3656 3044 3420 3430 
Q 3184 3816 2847 3947 
Q 2603 4041 2063 4041 
L 1100 4041 
L 1100 541 
z
" transform="scale(0.015625)"/>
        <path id="ArialMT-55" d="M 3500 4581 
L 4106 4581 
L 4106 1934 
Q 4106 1244 3950 837 
Q 3794 431 3386 176 
Q 2978 -78 2316 -78 
Q 1672 -78 1262 144 
Q 853 366 678 786 
Q 503 1206 503 1934 
L 503 4581 
L 1109 4581 
L 1109 1938 
Q 1109 1341 1220 1058 
Q 1331 775 1601 622 
Q 1872 469 2263 469 
Q 2931 469 3215 772 
Q 3500 1075 3500 1938 
L 3500 4581 
z
" transform="scale(0.015625)"/>
        <path id="ArialMT-53" d="M 288 1472 
L 859 1522 
Q 900 1178 1048 958 
Q 1197 738 1509 602 
Q 1822 466 2213 466 
Q 2559 466 2825 569 
Q 3091 672 3220 851 
Q 3350 1031 3350 1244 
Q 3350 1459 3225 1620 
Q 3100 1781 2813 1891 
Q 2628 1963 1997 2114 
Q 1366 2266 1113 2400 
Q 784 2572 623 2826 
Q 463 3081 463 3397 
Q 463 3744 659 4045 
Q 856 4347 1234 4503 
Q 1613 4659 2075 4659 
Q 2584 4659 2973 4495 
Q 3363 4331 3572 4012 
Q 3781 3694 3797 3291 
L 3216 3247 
Q 3169 3681 2898 3903 
Q 2628 4125 2100 4125 
Q 1550 4125 1298 3923 
Q 1047 3722 1047 3438 
Q 1047 3191 1225 3031 
Q 1400 2872 2139 2705 
Q 2878 2538 3153 2413 
Q 3553 2228 3743 1945 
Q 3934 1663 3934 1294 
Q 3934 928 3725 604 
Q 3516 281 3123 101 
Q 2731 -78 2241 -78 
Q 1619 -78 1198 103 
Q 778 284 539 648 
Q 300 1013 288 1472 
z
" transform="scale(0.015625)"/>
       </defs>
       <use xlink:href="#ArialMT-49"/>
       <use xlink:href="#ArialMT-4e" x="27.783203"/>
       <use xlink:href="#ArialMT-44" x="100"/>
       <use xlink:href="#ArialMT-55" x="172.216797"/>
       <use xlink:href="#ArialMT-53" x="244.433594"/>
      </g>
     </g>
    </g>
    <g id="xtick_4">
     <g id="text_4">
      <!-- NOX -->
      <g style="fill: #262626" transform="translate(473.445703 270.673594)scale(0.11 -0.11)">
       <defs>
        <path id="ArialMT-4f" d="M 309 2231 
Q 309 3372 921 4017 
Q 1534 4663 2503 4663 
Q 3138 4663 3647 4359 
Q 4156 4056 4423 3514 
Q 4691 2972 4691 2284 
Q 4691 1588 4409 1038 
Q 4128 488 3612 205 
Q 3097 -78 2500 -78 
Q 1853 -78 1343 234 
Q 834 547 571 1087 
Q 309 1628 309 2231 
z
M 934 2222 
Q 934 1394 1379 917 
Q 1825 441 2497 441 
Q 3181 441 3623 922 
Q 4066 1403 4066 2288 
Q 4066 2847 3877 3264 
Q 3688 3681 3323 3911 
Q 2959 4141 2506 4141 
Q 1863 4141 1398 3698 
Q 934 3256 934 2222 
z
" transform="scale(0.015625)"/>
        <path id="ArialMT-58" d="M 28 0 
L 1800 2388 
L 238 4581 
L 959 4581 
L 1791 3406 
Q 2050 3041 2159 2844 
Q 2313 3094 2522 3366 
L 3444 4581 
L 4103 4581 
L 2494 2422 
L 4228 0 
L 3478 0 
L 2325 1634 
Q 2228 1775 2125 1941 
Q 1972 1691 1906 1597 
L 756 0 
L 28 0 
z
" transform="scale(0.015625)"/>
       </defs>
       <use xlink:href="#ArialMT-4e"/>
       <use xlink:href="#ArialMT-4f" x="72.216797"/>
       <use xlink:href="#ArialMT-58" x="150"/>
      </g>
     </g>
    </g>
    <g id="xtick_5">
     <g id="text_5">
      <!-- RM -->
      <g style="fill: #262626" transform="translate(605.592266 270.673594)scale(0.11 -0.11)">
       <use xlink:href="#ArialMT-52"/>
       <use xlink:href="#ArialMT-4d" x="72.216797"/>
      </g>
     </g>
    </g>
    <g id="xtick_6">
     <g id="text_6">
      <!-- AGE -->
      <g style="fill: #262626" transform="translate(731.311562 270.673594)scale(0.11 -0.11)">
       <defs>
        <path id="ArialMT-41" d="M -9 0 
L 1750 4581 
L 2403 4581 
L 4278 0 
L 3588 0 
L 3053 1388 
L 1138 1388 
L 634 0 
L -9 0 
z
M 1313 1881 
L 2866 1881 
L 2388 3150 
Q 2169 3728 2063 4100 
Q 1975 3659 1816 3225 
L 1313 1881 
z
" transform="scale(0.015625)"/>
        <path id="ArialMT-47" d="M 2638 1797 
L 2638 2334 
L 4578 2338 
L 4578 638 
Q 4131 281 3656 101 
Q 3181 -78 2681 -78 
Q 2006 -78 1454 211 
Q 903 500 622 1047 
Q 341 1594 341 2269 
Q 341 2938 620 3517 
Q 900 4097 1425 4378 
Q 1950 4659 2634 4659 
Q 3131 4659 3532 4498 
Q 3934 4338 4162 4050 
Q 4391 3763 4509 3300 
L 3963 3150 
Q 3859 3500 3706 3700 
Q 3553 3900 3268 4020 
Q 2984 4141 2638 4141 
Q 2222 4141 1919 4014 
Q 1616 3888 1430 3681 
Q 1244 3475 1141 3228 
Q 966 2803 966 2306 
Q 966 1694 1177 1281 
Q 1388 869 1791 669 
Q 2194 469 2647 469 
Q 3041 469 3416 620 
Q 3791 772 3984 944 
L 3984 1797 
L 2638 1797 
z
" transform="scale(0.015625)"/>
        <path id="ArialMT-45" d="M 506 0 
L 506 4581 
L 3819 4581 
L 3819 4041 
L 1113 4041 
L 1113 2638 
L 3647 2638 
L 3647 2100 
L 1113 2100 
L 1113 541 
L 3925 541 
L 3925 0 
L 506 0 
z
" transform="scale(0.015625)"/>
       </defs>
       <use xlink:href="#ArialMT-41"/>
       <use xlink:href="#ArialMT-47" x="66.699219"/>
       <use xlink:href="#ArialMT-45" x="144.482422"/>
      </g>
     </g>
    </g>
    <g id="xtick_7">
     <g id="text_7">
      <!-- DIS -->
      <g style="fill: #262626" transform="translate(862.539453 270.673594)scale(0.11 -0.11)">
       <use xlink:href="#ArialMT-44"/>
       <use xlink:href="#ArialMT-49" x="72.216797"/>
       <use xlink:href="#ArialMT-53" x="100"/>
      </g>
     </g>
    </g>
    <g id="xtick_8">
     <g id="text_8">
      <!-- TAX -->
      <g style="fill: #262626" transform="translate(990.198359 270.673594)scale(0.11 -0.11)">
       <defs>
        <path id="ArialMT-54" d="M 1659 0 
L 1659 4041 
L 150 4041 
L 150 4581 
L 3781 4581 
L 3781 4041 
L 2266 4041 
L 2266 0 
L 1659 0 
z
" transform="scale(0.015625)"/>
       </defs>
       <use xlink:href="#ArialMT-54"/>
       <use xlink:href="#ArialMT-41" x="53.708984"/>
       <use xlink:href="#ArialMT-58" x="120.408203"/>
      </g>
     </g>
    </g>
   </g>
   <g id="matplotlib.axis_2">
    <g id="ytick_1">
     <g id="line2d_1">
      <path d="M 34.63 240.344682 
L 1064.88 240.344682 
" clip-path="url(#p321e957517)" style="fill: none; stroke: #cbcbcb"/>
     </g>
     <g id="text_9">
      <!-- −4 -->
      <g style="fill: #262626" transform="translate(15.088281 244.281479)scale(0.11 -0.11)">
       <defs>
        <path id="ArialMT-2212" d="M 3381 1997 
L 356 1997 
L 356 2522 
L 3381 2522 
L 3381 1997 
z
" transform="scale(0.015625)"/>
        <path id="ArialMT-34" d="M 2069 0 
L 2069 1097 
L 81 1097 
L 81 1613 
L 2172 4581 
L 2631 4581 
L 2631 1613 
L 3250 1613 
L 3250 1097 
L 2631 1097 
L 2631 0 
L 2069 0 
z
M 2069 1613 
L 2069 3678 
L 634 1613 
L 2069 1613 
z
" transform="scale(0.015625)"/>
       </defs>
       <use xlink:href="#ArialMT-2212"/>
       <use xlink:href="#ArialMT-34" x="58.398438"/>
      </g>
     </g>
    </g>
    <g id="ytick_2">
     <g id="line2d_2">
      <path d="M 34.63 214.579694 
L 1064.88 214.579694 
" clip-path="url(#p321e957517)" style="fill: none; stroke: #cbcbcb"/>
     </g>
     <g id="text_10">
      <!-- −2 -->
      <g style="fill: #262626" transform="translate(15.088281 218.516491)scale(0.11 -0.11)">
       <defs>
        <path id="ArialMT-32" d="M 3222 541 
L 3222 0 
L 194 0 
Q 188 203 259 391 
Q 375 700 629 1000 
Q 884 1300 1366 1694 
Q 2113 2306 2375 2664 
Q 2638 3022 2638 3341 
Q 2638 3675 2398 3904 
Q 2159 4134 1775 4134 
Q 1369 4134 1125 3890 
Q 881 3647 878 3216 
L 300 3275 
Q 359 3922 746 4261 
Q 1134 4600 1788 4600 
Q 2447 4600 2831 4234 
Q 3216 3869 3216 3328 
Q 3216 3053 3103 2787 
Q 2991 2522 2730 2228 
Q 2469 1934 1863 1422 
Q 1356 997 1212 845 
Q 1069 694 975 541 
L 3222 541 
z
" transform="scale(0.015625)"/>
       </defs>
       <use xlink:href="#ArialMT-2212"/>
       <use xlink:href="#ArialMT-32" x="58.398438"/>
      </g>
     </g>
    </g>
    <g id="ytick_3">
     <g id="line2d_3">
      <path d="M 34.63 188.814706 
L 1064.88 188.814706 
" clip-path="url(#p321e957517)" style="fill: none; stroke: #cbcbcb"/>
     </g>
     <g id="text_11">
      <!-- 0 -->
      <g style="fill: #262626" transform="translate(21.512969 192.751503)scale(0.11 -0.11)">
       <defs>
        <path id="ArialMT-30" d="M 266 2259 
Q 266 3072 433 3567 
Q 600 4063 929 4331 
Q 1259 4600 1759 4600 
Q 2128 4600 2406 4451 
Q 2684 4303 2865 4023 
Q 3047 3744 3150 3342 
Q 3253 2941 3253 2259 
Q 3253 1453 3087 958 
Q 2922 463 2592 192 
Q 2263 -78 1759 -78 
Q 1097 -78 719 397 
Q 266 969 266 2259 
z
M 844 2259 
Q 844 1131 1108 757 
Q 1372 384 1759 384 
Q 2147 384 2411 759 
Q 2675 1134 2675 2259 
Q 2675 3391 2411 3762 
Q 2147 4134 1753 4134 
Q 1366 4134 1134 3806 
Q 844 3388 844 2259 
z
" transform="scale(0.015625)"/>
       </defs>
       <use xlink:href="#ArialMT-30"/>
      </g>
     </g>
    </g>
    <g id="ytick_4">
     <g id="line2d_4">
      <path d="M 34.63 163.049718 
L 1064.88 163.049718 
" clip-path="url(#p321e957517)" style="fill: none; stroke: #cbcbcb"/>
     </g>
     <g id="text_12">
      <!-- 2 -->
      <g style="fill: #262626" transform="translate(21.512969 166.986515)scale(0.11 -0.11)">
       <use xlink:href="#ArialMT-32"/>
      </g>
     </g>
    </g>
    <g id="ytick_5">
     <g id="line2d_5">
      <path d="M 34.63 137.28473 
L 1064.88 137.28473 
" clip-path="url(#p321e957517)" style="fill: none; stroke: #cbcbcb"/>
     </g>
     <g id="text_13">
      <!-- 4 -->
      <g style="fill: #262626" transform="translate(21.512969 141.221527)scale(0.11 -0.11)">
       <use xlink:href="#ArialMT-34"/>
      </g>
     </g>
    </g>
    <g id="ytick_6">
     <g id="line2d_6">
      <path d="M 34.63 111.519742 
L 1064.88 111.519742 
" clip-path="url(#p321e957517)" style="fill: none; stroke: #cbcbcb"/>
     </g>
     <g id="text_14">
      <!-- 6 -->
      <g style="fill: #262626" transform="translate(21.512969 115.456539)scale(0.11 -0.11)">
       <defs>
        <path id="ArialMT-36" d="M 3184 3459 
L 2625 3416 
Q 2550 3747 2413 3897 
Q 2184 4138 1850 4138 
Q 1581 4138 1378 3988 
Q 1113 3794 959 3422 
Q 806 3050 800 2363 
Q 1003 2672 1297 2822 
Q 1591 2972 1913 2972 
Q 2475 2972 2870 2558 
Q 3266 2144 3266 1488 
Q 3266 1056 3080 686 
Q 2894 316 2569 119 
Q 2244 -78 1831 -78 
Q 1128 -78 684 439 
Q 241 956 241 2144 
Q 241 3472 731 4075 
Q 1159 4600 1884 4600 
Q 2425 4600 2770 4297 
Q 3116 3994 3184 3459 
z
M 888 1484 
Q 888 1194 1011 928 
Q 1134 663 1356 523 
Q 1578 384 1822 384 
Q 2178 384 2434 671 
Q 2691 959 2691 1453 
Q 2691 1928 2437 2201 
Q 2184 2475 1800 2475 
Q 1419 2475 1153 2201 
Q 888 1928 888 1484 
z
" transform="scale(0.015625)"/>
       </defs>
       <use xlink:href="#ArialMT-36"/>
      </g>
     </g>
    </g>
    <g id="ytick_7">
     <g id="line2d_7">
      <path d="M 34.63 85.754754 
L 1064.88 85.754754 
" clip-path="url(#p321e957517)" style="fill: none; stroke: #cbcbcb"/>
     </g>
     <g id="text_15">
      <!-- 8 -->
      <g style="fill: #262626" transform="translate(21.512969 89.691551)scale(0.11 -0.11)">
       <defs>
        <path id="ArialMT-38" d="M 1131 2484 
Q 781 2613 612 2850 
Q 444 3088 444 3419 
Q 444 3919 803 4259 
Q 1163 4600 1759 4600 
Q 2359 4600 2725 4251 
Q 3091 3903 3091 3403 
Q 3091 3084 2923 2848 
Q 2756 2613 2416 2484 
Q 2838 2347 3058 2040 
Q 3278 1734 3278 1309 
Q 3278 722 2862 322 
Q 2447 -78 1769 -78 
Q 1091 -78 675 323 
Q 259 725 259 1325 
Q 259 1772 486 2073 
Q 713 2375 1131 2484 
z
M 1019 3438 
Q 1019 3113 1228 2906 
Q 1438 2700 1772 2700 
Q 2097 2700 2305 2904 
Q 2513 3109 2513 3406 
Q 2513 3716 2298 3927 
Q 2084 4138 1766 4138 
Q 1444 4138 1231 3931 
Q 1019 3725 1019 3438 
z
M 838 1322 
Q 838 1081 952 856 
Q 1066 631 1291 507 
Q 1516 384 1775 384 
Q 2178 384 2440 643 
Q 2703 903 2703 1303 
Q 2703 1709 2433 1975 
Q 2163 2241 1756 2241 
Q 1359 2241 1098 1978 
Q 838 1716 838 1322 
z
" transform="scale(0.015625)"/>
       </defs>
       <use xlink:href="#ArialMT-38"/>
      </g>
     </g>
    </g>
    <g id="ytick_8">
     <g id="line2d_8">
      <path d="M 34.63 59.989766 
L 1064.88 59.989766 
" clip-path="url(#p321e957517)" style="fill: none; stroke: #cbcbcb"/>
     </g>
     <g id="text_16">
      <!-- 10 -->
      <g style="fill: #262626" transform="translate(15.395938 63.926563)scale(0.11 -0.11)">
       <defs>
        <path id="ArialMT-31" d="M 2384 0 
L 1822 0 
L 1822 3584 
Q 1619 3391 1289 3197 
Q 959 3003 697 2906 
L 697 3450 
Q 1169 3672 1522 3987 
Q 1875 4303 2022 4600 
L 2384 4600 
L 2384 0 
z
" transform="scale(0.015625)"/>
       </defs>
       <use xlink:href="#ArialMT-31"/>
       <use xlink:href="#ArialMT-30" x="55.615234"/>
      </g>
     </g>
    </g>
   </g>
   <g id="PolyCollection_1">
    <defs>
     <path id="m477afc26e7" d="M 104.602961 -86.366287 
L 93.438289 -86.366287 
L 87.093961 -87.862073 
L 77.288179 -89.357859 
L 65.202362 -90.853645 
L 53.984009 -92.349431 
L 47.508125 -93.845217 
L 48.09255 -95.341003 
L 54.990208 -96.836789 
L 65.012148 -98.332575 
L 74.655121 -99.82836 
L 81.875525 -101.324146 
L 86.399804 -102.819932 
L 88.963974 -104.315718 
L 90.45853 -105.811504 
L 91.501655 -107.30729 
L 92.388507 -108.803076 
L 93.195856 -110.298862 
L 93.909772 -111.794648 
L 94.52258 -113.290433 
L 95.067641 -114.786219 
L 95.591897 -116.282005 
L 96.111144 -117.777791 
L 96.598882 -119.273577 
L 97.014656 -120.769363 
L 97.33606 -122.265149 
L 97.565641 -123.760935 
L 97.719335 -125.256721 
L 97.818374 -126.752507 
L 97.890496 -128.248292 
L 97.968571 -129.744078 
L 98.078673 -131.239864 
L 98.226258 -132.73565 
L 98.39487 -134.231436 
L 98.5593 -135.727222 
L 98.700599 -137.223008 
L 98.811031 -138.718794 
L 98.889554 -140.21458 
L 98.936 -141.710365 
L 98.949091 -143.206151 
L 98.928155 -144.701937 
L 98.876984 -146.197723 
L 98.807591 -147.693509 
L 98.739755 -149.189295 
L 98.693716 -150.685081 
L 98.680146 -152.180867 
L 98.695769 -153.676653 
L 98.727862 -155.172439 
L 98.762536 -156.668224 
L 98.790621 -158.16401 
L 98.8098 -159.659796 
L 98.823612 -161.155582 
L 98.837079 -162.651368 
L 98.851159 -164.147154 
L 98.861631 -165.64294 
L 98.864663 -167.138726 
L 98.863283 -168.634512 
L 98.866891 -170.130297 
L 98.883604 -171.626083 
L 98.91332 -173.121869 
L 98.948158 -174.617655 
L 98.978775 -176.113441 
L 99.000031 -177.609227 
L 99.011996 -179.105013 
L 99.017513 -180.600799 
L 99.019494 -182.096585 
L 99.019583 -183.592371 
L 99.017869 -185.088156 
L 99.012879 -186.583942 
L 99.001807 -188.079728 
L 98.981704 -189.575514 
L 98.952084 -191.0713 
L 98.917579 -192.567086 
L 98.887499 -194.062872 
L 98.870547 -195.558658 
L 98.868057 -197.054444 
L 98.872505 -198.550229 
L 98.874166 -200.046015 
L 98.870283 -201.541801 
L 98.867725 -203.037587 
L 98.87641 -204.533373 
L 98.900147 -206.029159 
L 98.933554 -207.524945 
L 98.966751 -209.020731 
L 98.992206 -210.516517 
L 99.007838 -212.012302 
L 99.015581 -213.508088 
L 99.018326 -215.003874 
L 99.017728 -216.49966 
L 99.013386 -217.995446 
L 99.003021 -219.491232 
L 98.983806 -220.987018 
L 98.955117 -222.482804 
L 98.921565 -223.97859 
L 98.893322 -225.474376 
L 98.881593 -226.970161 
L 98.891582 -228.465947 
L 98.918839 -229.961733 
L 98.952394 -231.457519 
L 98.981755 -232.953305 
L 99.001806 -234.449091 
L 99.039444 -234.449091 
L 99.039444 -234.449091 
L 99.059495 -232.953305 
L 99.088856 -231.457519 
L 99.122411 -229.961733 
L 99.149668 -228.465947 
L 99.159657 -226.970161 
L 99.147928 -225.474376 
L 99.119685 -223.97859 
L 99.086133 -222.482804 
L 99.057444 -220.987018 
L 99.038229 -219.491232 
L 99.027864 -217.995446 
L 99.023522 -216.49966 
L 99.022924 -215.003874 
L 99.025669 -213.508088 
L 99.033412 -212.012302 
L 99.049044 -210.516517 
L 99.074499 -209.020731 
L 99.107696 -207.524945 
L 99.141103 -206.029159 
L 99.16484 -204.533373 
L 99.173525 -203.037587 
L 99.170967 -201.541801 
L 99.167084 -200.046015 
L 99.168745 -198.550229 
L 99.173193 -197.054444 
L 99.170703 -195.558658 
L 99.153751 -194.062872 
L 99.123671 -192.567086 
L 99.089166 -191.0713 
L 99.059546 -189.575514 
L 99.039443 -188.079728 
L 99.028371 -186.583942 
L 99.023381 -185.088156 
L 99.021667 -183.592371 
L 99.021756 -182.096585 
L 99.023737 -180.600799 
L 99.029254 -179.105013 
L 99.041219 -177.609227 
L 99.062475 -176.113441 
L 99.093092 -174.617655 
L 99.12793 -173.121869 
L 99.157646 -171.626083 
L 99.174359 -170.130297 
L 99.177967 -168.634512 
L 99.176587 -167.138726 
L 99.179619 -165.64294 
L 99.190091 -164.147154 
L 99.204171 -162.651368 
L 99.217638 -161.155582 
L 99.23145 -159.659796 
L 99.250629 -158.16401 
L 99.278714 -156.668224 
L 99.313388 -155.172439 
L 99.345481 -153.676653 
L 99.361104 -152.180867 
L 99.347534 -150.685081 
L 99.301495 -149.189295 
L 99.233659 -147.693509 
L 99.164266 -146.197723 
L 99.113095 -144.701937 
L 99.092159 -143.206151 
L 99.10525 -141.710365 
L 99.151696 -140.21458 
L 99.230219 -138.718794 
L 99.340651 -137.223008 
L 99.48195 -135.727222 
L 99.64638 -134.231436 
L 99.814992 -132.73565 
L 99.962577 -131.239864 
L 100.072679 -129.744078 
L 100.150754 -128.248292 
L 100.222876 -126.752507 
L 100.321915 -125.256721 
L 100.475609 -123.760935 
L 100.70519 -122.265149 
L 101.026594 -120.769363 
L 101.442368 -119.273577 
L 101.930106 -117.777791 
L 102.449353 -116.282005 
L 102.973609 -114.786219 
L 103.51867 -113.290433 
L 104.131478 -111.794648 
L 104.845394 -110.298862 
L 105.652743 -108.803076 
L 106.539595 -107.30729 
L 107.58272 -105.811504 
L 109.077276 -104.315718 
L 111.641446 -102.819932 
L 116.165725 -101.324146 
L 123.386129 -99.82836 
L 133.029102 -98.332575 
L 143.051042 -96.836789 
L 149.9487 -95.341003 
L 150.533125 -93.845217 
L 144.057241 -92.349431 
L 132.838888 -90.853645 
L 120.753071 -89.357859 
L 110.947289 -87.862073 
L 104.602961 -86.366287 
z
" style="stroke: #3e3e3e; stroke-width: 3"/>
    </defs>
    <g clip-path="url(#p321e957517)">
     <use xlink:href="#m477afc26e7" x="0" y="288" style="fill: #cb3335; stroke: #3e3e3e; stroke-width: 3"/>
    </g>
   </g>
   <g id="PolyCollection_2">
    <defs>
     <path id="mcfe9ac50db" d="M 234.758998 -85.491911 
L 220.844752 -85.491911 
L 217.79442 -86.199683 
L 213.92133 -86.907455 
L 209.237403 -87.615228 
L 203.859988 -88.323 
L 198.027451 -89.030773 
L 192.095011 -89.738545 
L 186.506203 -90.446318 
L 181.740832 -91.15409 
L 178.246813 -91.861863 
L 176.36884 -92.569635 
L 176.289375 -93.277408 
L 177.995763 -93.98518 
L 181.281493 -94.692953 
L 185.781407 -95.400725 
L 191.032487 -96.108498 
L 196.546261 -96.81627 
L 201.877391 -97.524042 
L 206.675731 -98.231815 
L 210.714677 -98.939587 
L 213.8951 -99.64736 
L 216.229389 -100.355132 
L 217.813105 -101.062905 
L 218.792177 -101.770677 
L 219.332065 -102.47845 
L 219.592945 -103.186222 
L 219.712614 -103.893995 
L 219.797023 -104.601767 
L 219.91737 -105.30954 
L 220.112185 -106.017312 
L 220.392829 -106.725085 
L 220.75083 -107.432857 
L 221.165701 -108.140629 
L 221.612074 -108.848402 
L 222.065323 -109.556174 
L 222.505275 -110.263947 
L 222.917971 -110.971719 
L 223.295822 -111.679492 
L 223.636668 -112.387264 
L 223.942268 -113.095037 
L 224.216679 -113.802809 
L 224.464808 -114.510582 
L 224.691293 -115.218354 
L 224.899751 -115.926127 
L 225.092412 -116.633899 
L 225.270097 -117.341672 
L 225.43253 -118.049444 
L 225.578887 -118.757216 
L 225.708471 -119.464989 
L 225.821357 -120.172761 
L 225.918818 -120.880534 
L 226.003417 -121.588306 
L 226.078703 -122.296079 
L 226.148566 -123.003851 
L 226.216385 -123.711624 
L 226.284166 -124.419396 
L 226.351866 -125.127169 
L 226.417041 -125.834941 
L 226.474914 -126.542714 
L 226.51882 -127.250486 
L 226.540976 -127.958259 
L 226.533442 -128.666031 
L 226.489164 -129.373803 
L 226.403003 -130.081576 
L 226.272668 -130.789348 
L 226.099498 -131.497121 
L 225.88899 -132.204893 
L 225.650954 -132.912666 
L 225.399172 -133.620438 
L 225.150418 -134.328211 
L 224.922867 -135.035983 
L 224.733995 -135.743756 
L 224.598327 -136.451528 
L 224.525451 -137.159301 
L 224.518748 -137.867073 
L 224.575176 -138.574846 
L 224.686164 -139.282618 
L 224.83943 -139.99039 
L 225.02128 -140.698163 
L 225.218846 -141.405935 
L 225.421784 -142.113708 
L 225.623128 -142.82148 
L 225.819262 -143.529253 
L 226.009175 -144.237025 
L 226.193348 -144.944798 
L 226.372612 -145.65257 
L 226.54727 -146.360343 
L 226.716636 -147.068115 
L 226.879012 -147.775888 
L 227.031986 -148.48366 
L 227.172924 -149.191433 
L 227.29947 -149.899205 
L 227.409948 -150.606977 
L 227.503592 -151.31475 
L 227.58059 -152.022522 
L 227.641973 -152.730295 
L 227.689402 -153.438067 
L 227.724914 -154.14584 
L 227.750675 -154.853612 
L 227.768777 -155.561385 
L 227.834973 -155.561385 
L 227.834973 -155.561385 
L 227.853075 -154.853612 
L 227.878836 -154.14584 
L 227.914348 -153.438067 
L 227.961777 -152.730295 
L 228.02316 -152.022522 
L 228.100158 -151.31475 
L 228.193802 -150.606977 
L 228.30428 -149.899205 
L 228.430826 -149.191433 
L 228.571764 -148.48366 
L 228.724738 -147.775888 
L 228.887114 -147.068115 
L 229.05648 -146.360343 
L 229.231138 -145.65257 
L 229.410402 -144.944798 
L 229.594575 -144.237025 
L 229.784488 -143.529253 
L 229.980622 -142.82148 
L 230.181966 -142.113708 
L 230.384904 -141.405935 
L 230.58247 -140.698163 
L 230.76432 -139.99039 
L 230.917586 -139.282618 
L 231.028574 -138.574846 
L 231.085002 -137.867073 
L 231.078299 -137.159301 
L 231.005423 -136.451528 
L 230.869755 -135.743756 
L 230.680883 -135.035983 
L 230.453332 -134.328211 
L 230.204578 -133.620438 
L 229.952796 -132.912666 
L 229.71476 -132.204893 
L 229.504252 -131.497121 
L 229.331082 -130.789348 
L 229.200747 -130.081576 
L 229.114586 -129.373803 
L 229.070308 -128.666031 
L 229.062774 -127.958259 
L 229.08493 -127.250486 
L 229.128836 -126.542714 
L 229.186709 -125.834941 
L 229.251884 -125.127169 
L 229.319584 -124.419396 
L 229.387365 -123.711624 
L 229.455184 -123.003851 
L 229.525047 -122.296079 
L 229.600333 -121.588306 
L 229.684932 -120.880534 
L 229.782393 -120.172761 
L 229.895279 -119.464989 
L 230.024863 -118.757216 
L 230.17122 -118.049444 
L 230.333653 -117.341672 
L 230.511338 -116.633899 
L 230.703999 -115.926127 
L 230.912457 -115.218354 
L 231.138942 -114.510582 
L 231.387071 -113.802809 
L 231.661482 -113.095037 
L 231.967082 -112.387264 
L 232.307928 -111.679492 
L 232.685779 -110.971719 
L 233.098475 -110.263947 
L 233.538427 -109.556174 
L 233.991676 -108.848402 
L 234.438049 -108.140629 
L 234.85292 -107.432857 
L 235.210921 -106.725085 
L 235.491565 -106.017312 
L 235.68638 -105.30954 
L 235.806727 -104.601767 
L 235.891136 -103.893995 
L 236.010805 -103.186222 
L 236.271685 -102.47845 
L 236.811573 -101.770677 
L 237.790645 -101.062905 
L 239.374361 -100.355132 
L 241.70865 -99.64736 
L 244.889073 -98.939587 
L 248.928019 -98.231815 
L 253.726359 -97.524042 
L 259.057489 -96.81627 
L 264.571263 -96.108498 
L 269.822343 -95.400725 
L 274.322257 -94.692953 
L 277.607987 -93.98518 
L 279.314375 -93.277408 
L 279.23491 -92.569635 
L 277.356937 -91.861863 
L 273.862918 -91.15409 
L 269.097547 -90.446318 
L 263.508739 -89.738545 
L 257.576299 -89.030773 
L 251.743762 -88.323 
L 246.366347 -87.615228 
L 241.68242 -86.907455 
L 237.80933 -86.199683 
L 234.758998 -85.491911 
z
" style="stroke: #3e3e3e; stroke-width: 3"/>
    </defs>
    <g clip-path="url(#p321e957517)">
     <use xlink:href="#mcfe9ac50db" x="0" y="288" style="fill: #477ca8; stroke: #3e3e3e; stroke-width: 3"/>
    </g>
   </g>
   <g id="PolyCollection_3">
    <defs>
     <path id="m1c516c9c4f" d="M 357.053385 -71.719733 
L 356.112865 -71.719733 
L 355.840425 -72.387004 
L 355.441675 -73.054276 
L 354.875476 -73.721548 
L 354.095493 -74.38882 
L 353.053037 -75.056091 
L 351.701262 -75.723363 
L 350.000484 -76.390635 
L 347.924045 -77.057906 
L 345.46389 -77.725178 
L 342.634885 -78.39245 
L 339.476921 -79.059722 
L 336.054163 -79.726993 
L 332.45125 -80.394265 
L 328.76684 -81.061537 
L 325.105431 -81.728809 
L 321.568793 -82.39608 
L 318.248378 -83.063352 
L 315.219895 -83.730624 
L 312.540686 -84.397896 
L 310.249896 -85.065167 
L 308.37082 -85.732439 
L 306.91438 -86.399711 
L 305.882605 -87.066983 
L 305.271179 -87.734254 
L 305.070625 -88.401526 
L 305.266212 -89.068798 
L 305.83717 -89.73607 
L 306.755992 -90.403341 
L 307.988546 -91.070613 
L 309.495408 -91.737885 
L 311.234324 -92.405157 
L 313.163305 -93.072428 
L 315.243539 -93.7397 
L 317.44132 -94.406972 
L 319.728428 -95.074244 
L 322.08084 -95.741515 
L 324.476152 -96.408787 
L 326.890468 -97.076059 
L 329.295664 -97.743331 
L 331.657753 -98.410602 
L 333.936677 -99.077874 
L 336.087271 -99.745146 
L 338.060713 -100.412418 
L 339.805518 -101.079689 
L 341.267362 -101.746961 
L 342.387567 -102.414233 
L 343.100896 -103.081505 
L 343.334148 -103.748776 
L 343.007489 -104.416048 
L 342.040406 -105.08332 
L 340.363336 -105.750592 
L 337.934539 -106.417863 
L 334.759942 -107.085135 
L 330.911957 -107.752407 
L 326.542245 -108.419679 
L 321.883573 -109.08695 
L 317.237484 -109.754222 
L 312.947376 -110.421494 
L 309.359984 -111.088766 
L 306.781476 -111.756037 
L 305.436257 -112.423309 
L 305.436601 -113.090581 
L 306.769187 -113.757853 
L 309.301009 -114.425124 
L 312.802952 -115.092396 
L 316.985661 -115.759668 
L 321.540189 -116.42694 
L 326.175706 -117.094211 
L 330.648175 -117.761483 
L 334.776696 -118.428755 
L 338.447339 -119.096027 
L 341.606835 -119.763298 
L 344.249986 -120.43057 
L 346.404884 -121.097842 
L 348.119271 -121.765114 
L 349.450019 -122.432385 
L 350.456301 -123.099657 
L 351.195941 -123.766929 
L 351.72384 -124.434201 
L 352.09136 -125.101472 
L 352.345803 -125.768744 
L 352.529604 -126.436016 
L 352.679261 -127.103288 
L 352.824247 -127.770559 
L 352.986218 -128.437831 
L 353.178761 -129.105103 
L 353.407767 -129.772375 
L 353.672378 -130.439646 
L 353.966364 -131.106918 
L 354.279761 -131.77419 
L 354.600586 -132.441461 
L 354.916457 -133.108733 
L 355.215994 -133.776005 
L 355.489898 -134.443277 
L 355.731615 -135.110548 
L 355.937594 -135.77782 
L 356.107141 -136.445092 
L 356.241979 -137.112364 
L 356.345595 -137.779635 
L 356.820655 -137.779635 
L 356.820655 -137.779635 
L 356.924271 -137.112364 
L 357.059109 -136.445092 
L 357.228656 -135.77782 
L 357.434635 -135.110548 
L 357.676352 -134.443277 
L 357.950256 -133.776005 
L 358.249793 -133.108733 
L 358.565664 -132.441461 
L 358.886489 -131.77419 
L 359.199886 -131.106918 
L 359.493872 -130.439646 
L 359.758483 -129.772375 
L 359.987489 -129.105103 
L 360.180032 -128.437831 
L 360.342003 -127.770559 
L 360.486989 -127.103288 
L 360.636646 -126.436016 
L 360.820447 -125.768744 
L 361.07489 -125.101472 
L 361.44241 -124.434201 
L 361.970309 -123.766929 
L 362.709949 -123.099657 
L 363.716231 -122.432385 
L 365.046979 -121.765114 
L 366.761366 -121.097842 
L 368.916264 -120.43057 
L 371.559415 -119.763298 
L 374.718911 -119.096027 
L 378.389554 -118.428755 
L 382.518075 -117.761483 
L 386.990544 -117.094211 
L 391.626061 -116.42694 
L 396.180589 -115.759668 
L 400.363298 -115.092396 
L 403.865241 -114.425124 
L 406.397063 -113.757853 
L 407.729649 -113.090581 
L 407.729993 -112.423309 
L 406.384774 -111.756037 
L 403.806266 -111.088766 
L 400.218874 -110.421494 
L 395.928766 -109.754222 
L 391.282677 -109.08695 
L 386.624005 -108.419679 
L 382.254293 -107.752407 
L 378.406308 -107.085135 
L 375.231711 -106.417863 
L 372.802914 -105.750592 
L 371.125844 -105.08332 
L 370.158761 -104.416048 
L 369.832102 -103.748776 
L 370.065354 -103.081505 
L 370.778683 -102.414233 
L 371.898888 -101.746961 
L 373.360732 -101.079689 
L 375.105537 -100.412418 
L 377.078979 -99.745146 
L 379.229573 -99.077874 
L 381.508497 -98.410602 
L 383.870586 -97.743331 
L 386.275782 -97.076059 
L 388.690098 -96.408787 
L 391.08541 -95.741515 
L 393.437822 -95.074244 
L 395.72493 -94.406972 
L 397.922711 -93.7397 
L 400.002945 -93.072428 
L 401.931926 -92.405157 
L 403.670842 -91.737885 
L 405.177704 -91.070613 
L 406.410258 -90.403341 
L 407.32908 -89.73607 
L 407.900038 -89.068798 
L 408.095625 -88.401526 
L 407.895071 -87.734254 
L 407.283645 -87.066983 
L 406.25187 -86.399711 
L 404.79543 -85.732439 
L 402.916354 -85.065167 
L 400.625564 -84.397896 
L 397.946355 -83.730624 
L 394.917872 -83.063352 
L 391.597457 -82.39608 
L 388.060819 -81.728809 
L 384.39941 -81.061537 
L 380.715 -80.394265 
L 377.112087 -79.726993 
L 373.689329 -79.059722 
L 370.531365 -78.39245 
L 367.70236 -77.725178 
L 365.242205 -77.057906 
L 363.165766 -76.390635 
L 361.464988 -75.723363 
L 360.113213 -75.056091 
L 359.070757 -74.38882 
L 358.290774 -73.721548 
L 357.724575 -73.054276 
L 357.325825 -72.387004 
L 357.053385 -71.719733 
z
" style="stroke: #3e3e3e; stroke-width: 3"/>
    </defs>
    <g clip-path="url(#p321e957517)">
     <use xlink:href="#m1c516c9c4f" x="0" y="288" style="fill: #59a257; stroke: #3e3e3e; stroke-width: 3"/>
    </g>
   </g>
   <g id="PolyCollection_4">
    <defs>
     <path id="md9af9714db" d="M 486.029583 -72.903234 
L 484.699167 -72.903234 
L 484.303788 -73.598822 
L 483.722931 -74.29441 
L 482.897288 -74.989998 
L 481.761693 -75.685586 
L 480.250239 -76.381174 
L 478.303463 -77.076762 
L 475.877077 -77.77235 
L 472.951275 -78.467938 
L 469.539298 -79.163526 
L 465.693734 -79.859114 
L 461.5091 -80.554702 
L 457.119569 -81.25029 
L 452.691262 -81.945878 
L 448.409257 -82.641466 
L 444.460299 -83.337054 
L 441.013079 -84.032642 
L 438.19868 -84.72823 
L 436.094239 -85.423818 
L 434.712843 -86.119406 
L 434.002025 -86.814994 
L 433.851875 -87.510582 
L 434.112031 -88.20617 
L 434.614929 -88.901758 
L 435.201262 -89.597346 
L 435.743002 -90.292934 
L 436.159794 -90.988522 
L 436.425976 -91.68411 
L 436.567479 -92.379698 
L 436.649916 -93.075286 
L 436.760753 -93.770874 
L 436.98931 -94.466462 
L 437.408366 -95.16205 
L 438.060472 -95.857638 
L 438.951036 -96.553226 
L 440.048919 -97.248814 
L 441.293987 -97.944402 
L 442.609867 -98.63999 
L 443.919241 -99.335578 
L 445.158565 -100.031166 
L 446.289209 -100.726754 
L 447.302813 -101.422342 
L 448.219903 -102.11793 
L 449.082338 -102.813518 
L 449.94147 -103.509106 
L 450.844778 -104.204694 
L 451.823875 -104.900282 
L 452.886323 -105.59587 
L 454.012704 -106.291458 
L 455.159246 -106.987046 
L 456.265246 -107.682634 
L 457.263746 -108.378222 
L 458.093493 -109.07381 
L 458.710166 -109.769398 
L 459.095098 -110.464986 
L 459.260165 -111.160574 
L 459.248134 -111.856162 
L 459.128407 -112.55175 
L 458.988782 -113.247338 
L 458.924446 -113.942926 
L 459.025863 -114.638514 
L 459.367421 -115.334102 
L 459.998597 -116.02969 
L 460.938962 -116.725278 
L 462.177652 -117.420866 
L 463.677094 -118.116454 
L 465.380005 -118.812042 
L 467.218126 -119.50763 
L 469.120962 -120.203218 
L 471.023039 -120.898806 
L 472.86867 -121.594394 
L 474.613916 -122.289982 
L 476.226091 -122.98557 
L 477.681592 -123.681158 
L 478.963076 -124.376746 
L 480.056921 -125.072334 
L 480.95168 -125.767922 
L 481.637892 -126.46351 
L 482.109248 -127.159098 
L 482.364856 -127.854686 
L 482.412045 -128.550274 
L 482.269069 -129.245862 
L 481.966911 -129.94145 
L 481.549482 -130.637038 
L 481.071668 -131.332626 
L 480.595073 -132.028214 
L 480.181808 -132.723802 
L 479.887215 -133.41939 
L 479.752844 -134.114978 
L 479.801104 -134.810566 
L 480.032764 -135.506154 
L 480.427878 -136.201742 
L 480.949957 -136.89733 
L 481.552443 -137.592918 
L 482.186103 -138.288506 
L 482.805866 -138.984094 
L 483.375904 -139.679682 
L 483.872335 -140.37527 
L 484.283523 -141.070858 
L 484.608457 -141.766446 
L 486.120293 -141.766446 
L 486.120293 -141.766446 
L 486.445227 -141.070858 
L 486.856415 -140.37527 
L 487.352846 -139.679682 
L 487.922884 -138.984094 
L 488.542647 -138.288506 
L 489.176307 -137.592918 
L 489.778793 -136.89733 
L 490.300872 -136.201742 
L 490.695986 -135.506154 
L 490.927646 -134.810566 
L 490.975906 -134.114978 
L 490.841535 -133.41939 
L 490.546942 -132.723802 
L 490.133677 -132.028214 
L 489.657082 -131.332626 
L 489.179268 -130.637038 
L 488.761839 -129.94145 
L 488.459681 -129.245862 
L 488.316705 -128.550274 
L 488.363894 -127.854686 
L 488.619502 -127.159098 
L 489.090858 -126.46351 
L 489.77707 -125.767922 
L 490.671829 -125.072334 
L 491.765674 -124.376746 
L 493.047158 -123.681158 
L 494.502659 -122.98557 
L 496.114834 -122.289982 
L 497.86008 -121.594394 
L 499.705711 -120.898806 
L 501.607788 -120.203218 
L 503.510624 -119.50763 
L 505.348745 -118.812042 
L 507.051656 -118.116454 
L 508.551098 -117.420866 
L 509.789788 -116.725278 
L 510.730153 -116.02969 
L 511.361329 -115.334102 
L 511.702887 -114.638514 
L 511.804304 -113.942926 
L 511.739968 -113.247338 
L 511.600343 -112.55175 
L 511.480616 -111.856162 
L 511.468585 -111.160574 
L 511.633652 -110.464986 
L 512.018584 -109.769398 
L 512.635257 -109.07381 
L 513.465004 -108.378222 
L 514.463504 -107.682634 
L 515.569504 -106.987046 
L 516.716046 -106.291458 
L 517.842427 -105.59587 
L 518.904875 -104.900282 
L 519.883972 -104.204694 
L 520.78728 -103.509106 
L 521.646412 -102.813518 
L 522.508847 -102.11793 
L 523.425937 -101.422342 
L 524.439541 -100.726754 
L 525.570185 -100.031166 
L 526.809509 -99.335578 
L 528.118883 -98.63999 
L 529.434763 -97.944402 
L 530.679831 -97.248814 
L 531.777714 -96.553226 
L 532.668278 -95.857638 
L 533.320384 -95.16205 
L 533.73944 -94.466462 
L 533.967997 -93.770874 
L 534.078834 -93.075286 
L 534.161271 -92.379698 
L 534.302774 -91.68411 
L 534.568956 -90.988522 
L 534.985748 -90.292934 
L 535.527488 -89.597346 
L 536.113821 -88.901758 
L 536.616719 -88.20617 
L 536.876875 -87.510582 
L 536.726725 -86.814994 
L 536.015907 -86.119406 
L 534.634511 -85.423818 
L 532.53007 -84.72823 
L 529.715671 -84.032642 
L 526.268451 -83.337054 
L 522.319493 -82.641466 
L 518.037488 -81.945878 
L 513.609181 -81.25029 
L 509.21965 -80.554702 
L 505.035016 -79.859114 
L 501.189452 -79.163526 
L 497.777475 -78.467938 
L 494.851673 -77.77235 
L 492.425287 -77.076762 
L 490.478511 -76.381174 
L 488.967057 -75.685586 
L 487.831462 -74.989998 
L 487.005819 -74.29441 
L 486.424962 -73.598822 
L 486.029583 -72.903234 
z
" style="stroke: #3e3e3e; stroke-width: 3"/>
    </defs>
    <g clip-path="url(#p321e957517)">
     <use xlink:href="#md9af9714db" x="0" y="288" style="fill: #905998; stroke: #3e3e3e; stroke-width: 3"/>
    </g>
   </g>
   <g id="PolyCollection_5">
    <defs>
     <path id="mf3ca5b68a2" d="M 614.184406 -41.830909 
L 614.106844 -41.830909 
L 614.077313 -42.947308 
L 614.035144 -44.063706 
L 613.981092 -45.180105 
L 613.919007 -46.296503 
L 613.855064 -47.412902 
L 613.795573 -48.529301 
L 613.744322 -49.645699 
L 613.700918 -50.762098 
L 613.661074 -51.878496 
L 613.61867 -52.994895 
L 613.568466 -54.111293 
L 613.508321 -55.227692 
L 613.44021 -56.34409 
L 613.369731 -57.460489 
L 613.303999 -58.576888 
L 613.248374 -59.693286 
L 613.203333 -60.809685 
L 613.16321 -61.926083 
L 613.11759 -63.042482 
L 613.054221 -64.15888 
L 612.96099 -65.275279 
L 612.825385 -66.391678 
L 612.632494 -67.508076 
L 612.365107 -68.624475 
L 612.009094 -69.740873 
L 611.563152 -70.857272 
L 611.046451 -71.97367 
L 610.495602 -73.090069 
L 609.94711 -74.206468 
L 609.411521 -75.322866 
L 608.853646 -76.439265 
L 608.192118 -77.555663 
L 607.320264 -78.672062 
L 606.136516 -79.78846 
L 604.566654 -80.904859 
L 602.566833 -82.021258 
L 600.110551 -83.137656 
L 597.174114 -84.254055 
L 593.736412 -85.370453 
L 589.799996 -86.486852 
L 585.427079 -87.60325 
L 580.772837 -88.719649 
L 576.094432 -89.836048 
L 571.721307 -90.952446 
L 567.989783 -92.068845 
L 565.164882 -93.185243 
L 563.382028 -94.301642 
L 562.633125 -95.41804 
L 562.799784 -96.534439 
L 563.714613 -97.650838 
L 565.22104 -98.767236 
L 567.206578 -99.883635 
L 569.599872 -101.000033 
L 572.34111 -102.116432 
L 575.348837 -103.23283 
L 578.506086 -104.349229 
L 581.674276 -105.465628 
L 584.724507 -106.582026 
L 587.566116 -107.698425 
L 590.157511 -108.814823 
L 592.498025 -109.931222 
L 594.610484 -111.04762 
L 596.525811 -112.164019 
L 598.27512 -113.280418 
L 599.887736 -114.396816 
L 601.390251 -115.513215 
L 602.802966 -116.629613 
L 604.133795 -117.746012 
L 605.372994 -118.86241 
L 606.493099 -119.978809 
L 607.456722 -121.095208 
L 608.231177 -122.211606 
L 608.804845 -123.328005 
L 609.197795 -124.444403 
L 609.460374 -125.560802 
L 609.6586 -126.6772 
L 609.852067 -127.793599 
L 610.074718 -128.909998 
L 610.328019 -130.026396 
L 610.589745 -131.142795 
L 610.83315 -132.259193 
L 611.045658 -133.375592 
L 611.23665 -134.49199 
L 611.430478 -135.608389 
L 611.649779 -136.724788 
L 611.900092 -137.841186 
L 612.165739 -138.957585 
L 612.419339 -140.073983 
L 612.638301 -141.190382 
L 612.817362 -142.30678 
L 612.969578 -143.423179 
L 613.116332 -144.539578 
L 613.273815 -145.655976 
L 613.444522 -146.772375 
L 613.617755 -147.888773 
L 613.776913 -149.005172 
L 613.908025 -150.12157 
L 614.00483 -151.237969 
L 614.06905 -152.354368 
L 614.2222 -152.354368 
L 614.2222 -152.354368 
L 614.28642 -151.237969 
L 614.383225 -150.12157 
L 614.514337 -149.005172 
L 614.673495 -147.888773 
L 614.846728 -146.772375 
L 615.017435 -145.655976 
L 615.174918 -144.539578 
L 615.321672 -143.423179 
L 615.473888 -142.30678 
L 615.652949 -141.190382 
L 615.871911 -140.073983 
L 616.125511 -138.957585 
L 616.391158 -137.841186 
L 616.641471 -136.724788 
L 616.860772 -135.608389 
L 617.0546 -134.49199 
L 617.245592 -133.375592 
L 617.4581 -132.259193 
L 617.701505 -131.142795 
L 617.963231 -130.026396 
L 618.216532 -128.909998 
L 618.439183 -127.793599 
L 618.63265 -126.6772 
L 618.830876 -125.560802 
L 619.093455 -124.444403 
L 619.486405 -123.328005 
L 620.060073 -122.211606 
L 620.834528 -121.095208 
L 621.798151 -119.978809 
L 622.918256 -118.86241 
L 624.157455 -117.746012 
L 625.488284 -116.629613 
L 626.900999 -115.513215 
L 628.403514 -114.396816 
L 630.01613 -113.280418 
L 631.765439 -112.164019 
L 633.680766 -111.04762 
L 635.793225 -109.931222 
L 638.133739 -108.814823 
L 640.725134 -107.698425 
L 643.566743 -106.582026 
L 646.616974 -105.465628 
L 649.785164 -104.349229 
L 652.942413 -103.23283 
L 655.95014 -102.116432 
L 658.691378 -101.000033 
L 661.084672 -99.883635 
L 663.07021 -98.767236 
L 664.576637 -97.650838 
L 665.491466 -96.534439 
L 665.658125 -95.41804 
L 664.909222 -94.301642 
L 663.126368 -93.185243 
L 660.301467 -92.068845 
L 656.569943 -90.952446 
L 652.196818 -89.836048 
L 647.518413 -88.719649 
L 642.864171 -87.60325 
L 638.491254 -86.486852 
L 634.554838 -85.370453 
L 631.117136 -84.254055 
L 628.180699 -83.137656 
L 625.724417 -82.021258 
L 623.724596 -80.904859 
L 622.154734 -79.78846 
L 620.970986 -78.672062 
L 620.099132 -77.555663 
L 619.437604 -76.439265 
L 618.879729 -75.322866 
L 618.34414 -74.206468 
L 617.795648 -73.090069 
L 617.244799 -71.97367 
L 616.728098 -70.857272 
L 616.282156 -69.740873 
L 615.926143 -68.624475 
L 615.658756 -67.508076 
L 615.465865 -66.391678 
L 615.33026 -65.275279 
L 615.237029 -64.15888 
L 615.17366 -63.042482 
L 615.12804 -61.926083 
L 615.087917 -60.809685 
L 615.042876 -59.693286 
L 614.987251 -58.576888 
L 614.921519 -57.460489 
L 614.85104 -56.34409 
L 614.782929 -55.227692 
L 614.722784 -54.111293 
L 614.67258 -52.994895 
L 614.630176 -51.878496 
L 614.590332 -50.762098 
L 614.546928 -49.645699 
L 614.495677 -48.529301 
L 614.436186 -47.412902 
L 614.372243 -46.296503 
L 614.310158 -45.180105 
L 614.256106 -44.063706 
L 614.213937 -42.947308 
L 614.184406 -41.830909 
z
" style="stroke: #3e3e3e; stroke-width: 3"/>
    </defs>
    <g clip-path="url(#p321e957517)">
     <use xlink:href="#mf3ca5b68a2" x="0" y="288" style="fill: #df7f20; stroke: #3e3e3e; stroke-width: 3"/>
    </g>
   </g>
   <g id="PolyCollection_6">
    <defs>
     <path id="m67b4393c36" d="M 743.093049 -61.71227 
L 742.760701 -61.71227 
L 742.682332 -62.310971 
L 742.575056 -62.909672 
L 742.431892 -63.508373 
L 742.245587 -64.107075 
L 742.009106 -64.705776 
L 741.716209 -65.304477 
L 741.362039 -65.903178 
L 740.943651 -66.50188 
L 740.460371 -67.100581 
L 739.913941 -67.699282 
L 739.308391 -68.297983 
L 738.649674 -68.896685 
L 737.94512 -69.495386 
L 737.202816 -70.094087 
L 736.431023 -70.692788 
L 735.637717 -71.291489 
L 734.8303 -71.890191 
L 734.015466 -72.488892 
L 733.199168 -73.087593 
L 732.386592 -73.686294 
L 731.582089 -74.284996 
L 730.789054 -74.883697 
L 730.009789 -75.482398 
L 729.245477 -76.081099 
L 728.496363 -76.679801 
L 727.762238 -77.278502 
L 727.043208 -77.877203 
L 726.340655 -78.475904 
L 725.658178 -79.074605 
L 725.002262 -79.673307 
L 724.382446 -80.272008 
L 723.810841 -80.870709 
L 723.30101 -81.46941 
L 722.866335 -82.068112 
L 722.518162 -82.666813 
L 722.264054 -83.265514 
L 722.106476 -83.864215 
L 722.042138 -84.462917 
L 722.06212 -85.061618 
L 722.152721 -85.660319 
L 722.296873 -86.25902 
L 722.475875 -86.857721 
L 722.671178 -87.456423 
L 722.865958 -88.055124 
L 723.046306 -88.653825 
L 723.201904 -89.252526 
L 723.32619 -89.851228 
L 723.416026 -90.449929 
L 723.471002 -91.04863 
L 723.492495 -91.647331 
L 723.482656 -92.246033 
L 723.443458 -92.844734 
L 723.375943 -93.443435 
L 723.279728 -94.042136 
L 723.152808 -94.640837 
L 722.99161 -95.239539 
L 722.791212 -95.83824 
L 722.545631 -96.436941 
L 722.248039 -97.035642 
L 721.890852 -97.634344 
L 721.465633 -98.233045 
L 720.962848 -98.831746 
L 720.371552 -99.430447 
L 719.679132 -100.029149 
L 718.871248 -100.62785 
L 717.932107 -101.226551 
L 716.845161 -101.825252 
L 715.594306 -102.423953 
L 714.165579 -103.022655 
L 712.549349 -103.621356 
L 710.742919 -104.220057 
L 708.753443 -104.818758 
L 706.600946 -105.41746 
L 704.321188 -106.016161 
L 701.967954 -106.614862 
L 699.614278 -107.213563 
L 697.35203 -107.812265 
L 695.289353 -108.410966 
L 693.545581 -109.009667 
L 692.243605 -109.608368 
L 691.500088 -110.207069 
L 691.414375 -110.805771 
L 692.057417 -111.404472 
L 693.462247 -112.003173 
L 695.617555 -112.601874 
L 698.46559 -113.200576 
L 701.905048 -113.799277 
L 705.798832 -114.397978 
L 709.985777 -114.996679 
L 714.294813 -115.595381 
L 718.559632 -116.194082 
L 722.631941 -116.792783 
L 726.391694 -117.391484 
L 729.753277 -117.990186 
L 732.667362 -118.588887 
L 735.118776 -119.187588 
L 737.121321 -119.786289 
L 738.710704 -120.38499 
L 739.936842 -120.983692 
L 745.916908 -120.983692 
L 745.916908 -120.983692 
L 747.143046 -120.38499 
L 748.732429 -119.786289 
L 750.734974 -119.187588 
L 753.186388 -118.588887 
L 756.100473 -117.990186 
L 759.462056 -117.391484 
L 763.221809 -116.792783 
L 767.294118 -116.194082 
L 771.558937 -115.595381 
L 775.867973 -114.996679 
L 780.054918 -114.397978 
L 783.948702 -113.799277 
L 787.38816 -113.200576 
L 790.236195 -112.601874 
L 792.391503 -112.003173 
L 793.796333 -111.404472 
L 794.439375 -110.805771 
L 794.353662 -110.207069 
L 793.610145 -109.608368 
L 792.308169 -109.009667 
L 790.564397 -108.410966 
L 788.50172 -107.812265 
L 786.239472 -107.213563 
L 783.885796 -106.614862 
L 781.532562 -106.016161 
L 779.252804 -105.41746 
L 777.100307 -104.818758 
L 775.110831 -104.220057 
L 773.304401 -103.621356 
L 771.688171 -103.022655 
L 770.259444 -102.423953 
L 769.008589 -101.825252 
L 767.921643 -101.226551 
L 766.982502 -100.62785 
L 766.174618 -100.029149 
L 765.482198 -99.430447 
L 764.890902 -98.831746 
L 764.388117 -98.233045 
L 763.962898 -97.634344 
L 763.605711 -97.035642 
L 763.308119 -96.436941 
L 763.062538 -95.83824 
L 762.86214 -95.239539 
L 762.700942 -94.640837 
L 762.574022 -94.042136 
L 762.477807 -93.443435 
L 762.410292 -92.844734 
L 762.371094 -92.246033 
L 762.361255 -91.647331 
L 762.382748 -91.04863 
L 762.437724 -90.449929 
L 762.52756 -89.851228 
L 762.651846 -89.252526 
L 762.807444 -88.653825 
L 762.987792 -88.055124 
L 763.182572 -87.456423 
L 763.377875 -86.857721 
L 763.556877 -86.25902 
L 763.701029 -85.660319 
L 763.79163 -85.061618 
L 763.811612 -84.462917 
L 763.747274 -83.864215 
L 763.589696 -83.265514 
L 763.335588 -82.666813 
L 762.987415 -82.068112 
L 762.55274 -81.46941 
L 762.042909 -80.870709 
L 761.471304 -80.272008 
L 760.851488 -79.673307 
L 760.195572 -79.074605 
L 759.513095 -78.475904 
L 758.810542 -77.877203 
L 758.091512 -77.278502 
L 757.357387 -76.679801 
L 756.608273 -76.081099 
L 755.843961 -75.482398 
L 755.064696 -74.883697 
L 754.271661 -74.284996 
L 753.467158 -73.686294 
L 752.654582 -73.087593 
L 751.838284 -72.488892 
L 751.02345 -71.890191 
L 750.216033 -71.291489 
L 749.422727 -70.692788 
L 748.650934 -70.094087 
L 747.90863 -69.495386 
L 747.204076 -68.896685 
L 746.545359 -68.297983 
L 745.939809 -67.699282 
L 745.393379 -67.100581 
L 744.910099 -66.50188 
L 744.491711 -65.903178 
L 744.137541 -65.304477 
L 743.844644 -64.705776 
L 743.608163 -64.107075 
L 743.421858 -63.508373 
L 743.278694 -62.909672 
L 743.171418 -62.310971 
L 743.093049 -61.71227 
z
" style="stroke: #3e3e3e; stroke-width: 3"/>
    </defs>
    <g clip-path="url(#p321e957517)">
     <use xlink:href="#m67b4393c36" x="0" y="288" style="fill: #e6e64c; stroke: #3e3e3e; stroke-width: 3"/>
    </g>
   </g>
   <g id="PolyCollection_7">
    <defs>
     <path id="m7e8833fa33" d="M 872.512712 -75.461905 
L 870.903538 -75.461905 
L 870.324747 -76.291308 
L 869.427135 -77.12071 
L 868.098994 -77.950112 
L 866.224233 -78.779514 
L 863.700157 -79.608916 
L 860.460082 -80.438318 
L 856.496931 -81.26772 
L 851.882275 -82.097122 
L 846.775008 -82.926524 
L 841.415337 -83.755926 
L 836.102917 -84.585328 
L 831.161883 -85.414731 
L 826.89907 -86.244133 
L 823.563592 -87.073535 
L 821.315623 -87.902937 
L 820.209863 -88.732339 
L 820.195625 -89.561741 
L 821.131923 -90.391143 
L 822.813352 -91.220545 
L 825.001409 -92.049947 
L 827.456031 -92.879349 
L 829.963106 -93.708751 
L 832.354981 -94.538153 
L 834.522208 -95.367556 
L 836.415922 -96.196958 
L 838.041396 -97.02636 
L 839.444425 -97.855762 
L 840.693278 -98.685164 
L 841.859631 -99.514566 
L 843.001991 -100.343968 
L 844.154538 -101.17337 
L 845.323098 -102.002772 
L 846.488345 -102.832174 
L 847.614768 -103.661576 
L 848.662593 -104.490979 
L 849.599341 -105.320381 
L 850.407964 -106.149783 
L 851.089763 -106.979185 
L 851.662057 -107.808587 
L 852.152271 -108.637989 
L 852.5911 -109.467391 
L 853.007216 -110.296793 
L 853.424763 -111.126195 
L 853.863294 -111.955597 
L 854.338654 -112.784999 
L 854.863151 -113.614402 
L 855.444296 -114.443804 
L 856.082651 -115.273206 
L 856.770291 -116.102608 
L 857.491322 -116.93201 
L 858.225029 -117.761412 
L 858.950866 -118.590814 
L 859.653601 -119.420216 
L 860.326712 -120.249618 
L 860.972848 -121.07902 
L 861.601269 -121.908422 
L 862.223302 -122.737825 
L 862.847447 -123.567227 
L 863.475842 -124.396629 
L 864.103255 -125.226031 
L 864.718872 -126.055433 
L 865.310197 -126.884835 
L 865.867587 -127.714237 
L 866.387689 -128.543639 
L 866.874427 -129.373041 
L 867.337059 -130.202443 
L 867.786008 -131.031845 
L 868.227977 -131.861247 
L 868.662239 -132.69065 
L 869.079489 -133.520052 
L 869.463767 -134.349454 
L 869.796848 -135.178856 
L 870.063682 -136.008258 
L 870.257157 -136.83766 
L 870.380726 -137.667062 
L 870.448156 -138.496464 
L 870.480516 -139.325866 
L 870.501333 -140.155268 
L 870.531327 -140.98467 
L 870.584197 -141.814073 
L 870.664518 -142.643475 
L 870.768168 -143.472877 
L 870.884881 -144.302279 
L 871.001995 -145.131681 
L 871.108186 -145.961083 
L 871.196171 -146.790485 
L 871.263806 -147.619887 
L 871.313589 -148.449289 
L 871.350998 -149.278691 
L 871.382394 -150.108093 
L 871.413148 -150.937496 
L 871.446483 -151.766898 
L 871.483175 -152.5963 
L 871.521999 -153.425702 
L 871.5606 -154.255104 
L 871.596432 -155.084506 
L 871.627488 -155.913908 
L 871.652668 -156.74331 
L 871.671815 -157.572712 
L 871.744435 -157.572712 
L 871.744435 -157.572712 
L 871.763582 -156.74331 
L 871.788762 -155.913908 
L 871.819818 -155.084506 
L 871.85565 -154.255104 
L 871.894251 -153.425702 
L 871.933075 -152.5963 
L 871.969767 -151.766898 
L 872.003102 -150.937496 
L 872.033856 -150.108093 
L 872.065252 -149.278691 
L 872.102661 -148.449289 
L 872.152444 -147.619887 
L 872.220079 -146.790485 
L 872.308064 -145.961083 
L 872.414255 -145.131681 
L 872.531369 -144.302279 
L 872.648082 -143.472877 
L 872.751732 -142.643475 
L 872.832053 -141.814073 
L 872.884923 -140.98467 
L 872.914917 -140.155268 
L 872.935734 -139.325866 
L 872.968094 -138.496464 
L 873.035524 -137.667062 
L 873.159093 -136.83766 
L 873.352568 -136.008258 
L 873.619402 -135.178856 
L 873.952483 -134.349454 
L 874.336761 -133.520052 
L 874.754011 -132.69065 
L 875.188273 -131.861247 
L 875.630242 -131.031845 
L 876.079191 -130.202443 
L 876.541823 -129.373041 
L 877.028561 -128.543639 
L 877.548663 -127.714237 
L 878.106053 -126.884835 
L 878.697378 -126.055433 
L 879.312995 -125.226031 
L 879.940408 -124.396629 
L 880.568803 -123.567227 
L 881.192948 -122.737825 
L 881.814981 -121.908422 
L 882.443402 -121.07902 
L 883.089538 -120.249618 
L 883.762649 -119.420216 
L 884.465384 -118.590814 
L 885.191221 -117.761412 
L 885.924928 -116.93201 
L 886.645959 -116.102608 
L 887.333599 -115.273206 
L 887.971954 -114.443804 
L 888.553099 -113.614402 
L 889.077596 -112.784999 
L 889.552956 -111.955597 
L 889.991487 -111.126195 
L 890.409034 -110.296793 
L 890.82515 -109.467391 
L 891.263979 -108.637989 
L 891.754193 -107.808587 
L 892.326487 -106.979185 
L 893.008286 -106.149783 
L 893.816909 -105.320381 
L 894.753657 -104.490979 
L 895.801482 -103.661576 
L 896.927905 -102.832174 
L 898.093152 -102.002772 
L 899.261712 -101.17337 
L 900.414259 -100.343968 
L 901.556619 -99.514566 
L 902.722972 -98.685164 
L 903.971825 -97.855762 
L 905.374854 -97.02636 
L 907.000328 -96.196958 
L 908.894042 -95.367556 
L 911.061269 -94.538153 
L 913.453144 -93.708751 
L 915.960219 -92.879349 
L 918.414841 -92.049947 
L 920.602898 -91.220545 
L 922.284327 -90.391143 
L 923.220625 -89.561741 
L 923.206387 -88.732339 
L 922.100627 -87.902937 
L 919.852658 -87.073535 
L 916.51718 -86.244133 
L 912.254367 -85.414731 
L 907.313333 -84.585328 
L 902.000913 -83.755926 
L 896.641242 -82.926524 
L 891.533975 -82.097122 
L 886.919319 -81.26772 
L 882.956168 -80.438318 
L 879.716093 -79.608916 
L 877.192017 -78.779514 
L 875.317256 -77.950112 
L 873.989115 -77.12071 
L 873.091503 -76.291308 
L 872.512712 -75.461905 
z
" style="stroke: #3e3e3e; stroke-width: 3"/>
    </defs>
    <g clip-path="url(#p321e957517)">
     <use xlink:href="#m7e8833fa33" x="0" y="288" style="fill: #965a38; stroke: #3e3e3e; stroke-width: 3"/>
    </g>
   </g>
   <g id="PolyCollection_8">
    <defs>
     <path id="m35bf9726cc" d="M 1001.203237 -74.858045 
L 999.775513 -74.858045 
L 999.485564 -75.41245 
L 999.103073 -75.966855 
L 998.60829 -76.52126 
L 997.980417 -77.075665 
L 997.198452 -77.63007 
L 996.242187 -78.184475 
L 995.093282 -78.73888 
L 993.736331 -79.293285 
L 992.159827 -79.84769 
L 990.356965 -80.402095 
L 988.326251 -80.9565 
L 986.071932 -81.510904 
L 983.604306 -82.065309 
L 980.940001 -82.619714 
L 978.102321 -83.174119 
L 975.121718 -83.728524 
L 972.036389 -84.282929 
L 968.892899 -84.837334 
L 965.746602 -85.391739 
L 962.661597 -85.946144 
L 959.709841 -86.500549 
L 956.96914 -87.054954 
L 954.519813 -87.609359 
L 952.440032 -88.163763 
L 950.800121 -88.718168 
L 949.656325 -89.272573 
L 949.044827 -89.826978 
L 948.976875 -90.381383 
L 949.435894 -90.935788 
L 950.377251 -91.490193 
L 951.731037 -92.044598 
L 953.407775 -92.599003 
L 955.306531 -93.153408 
L 957.324483 -93.707813 
L 959.366743 -94.262218 
L 961.355145 -94.816622 
L 963.23482 -95.371027 
L 964.977734 -95.925432 
L 966.582768 -96.479837 
L 968.072474 -97.034242 
L 969.487089 -97.588647 
L 970.876781 -98.143052 
L 972.293272 -98.697457 
L 973.782018 -99.251862 
L 975.375933 -99.806267 
L 977.091342 -100.360672 
L 978.926473 -100.915077 
L 980.862392 -101.469481 
L 982.865969 -102.023886 
L 984.894238 -102.578291 
L 986.899382 -103.132696 
L 988.833634 -103.687101 
L 990.653455 -104.241506 
L 992.322566 -104.795911 
L 993.813595 -105.350316 
L 995.108316 -105.904721 
L 996.196625 -106.459126 
L 997.074516 -107.013531 
L 997.741425 -107.567935 
L 998.197312 -108.12234 
L 998.439897 -108.676745 
L 998.462442 -109.23115 
L 998.252415 -109.785555 
L 997.791374 -110.33996 
L 997.056266 -110.894365 
L 996.022264 -111.44877 
L 994.667052 -112.003175 
L 992.976287 -112.55758 
L 990.949672 -113.111985 
L 988.606892 -113.66639 
L 985.992464 -114.220794 
L 983.1785 -114.775199 
L 980.264525 -115.329604 
L 977.37377 -115.884009 
L 974.645856 -116.438414 
L 972.226344 -116.992819 
L 970.254194 -117.547224 
L 968.848665 -118.101629 
L 968.097388 -118.656034 
L 968.047304 -119.210439 
L 968.699798 -119.764844 
L 970.010744 -120.319249 
L 971.895435 -120.873653 
L 974.237639 -121.428058 
L 976.901442 -121.982463 
L 979.744206 -122.536868 
L 982.628929 -123.091273 
L 985.434587 -123.645678 
L 988.063441 -124.200083 
L 990.444903 -124.754488 
L 992.536082 -125.308893 
L 994.319541 -125.863298 
L 995.799105 -126.417703 
L 996.994614 -126.972108 
L 997.936467 -127.526512 
L 998.660611 -128.080917 
L 999.204399 -128.635322 
L 999.603528 -129.189727 
L 999.890055 -129.744132 
L 1001.088695 -129.744132 
L 1001.088695 -129.744132 
L 1001.375222 -129.189727 
L 1001.774351 -128.635322 
L 1002.318139 -128.080917 
L 1003.042283 -127.526512 
L 1003.984136 -126.972108 
L 1005.179645 -126.417703 
L 1006.659209 -125.863298 
L 1008.442668 -125.308893 
L 1010.533847 -124.754488 
L 1012.915309 -124.200083 
L 1015.544163 -123.645678 
L 1018.349821 -123.091273 
L 1021.234544 -122.536868 
L 1024.077308 -121.982463 
L 1026.741111 -121.428058 
L 1029.083315 -120.873653 
L 1030.968006 -120.319249 
L 1032.278952 -119.764844 
L 1032.931446 -119.210439 
L 1032.881362 -118.656034 
L 1032.130085 -118.101629 
L 1030.724556 -117.547224 
L 1028.752406 -116.992819 
L 1026.332894 -116.438414 
L 1023.60498 -115.884009 
L 1020.714225 -115.329604 
L 1017.80025 -114.775199 
L 1014.986286 -114.220794 
L 1012.371858 -113.66639 
L 1010.029078 -113.111985 
L 1008.002463 -112.55758 
L 1006.311698 -112.003175 
L 1004.956486 -111.44877 
L 1003.922484 -110.894365 
L 1003.187376 -110.33996 
L 1002.726335 -109.785555 
L 1002.516308 -109.23115 
L 1002.538853 -108.676745 
L 1002.781438 -108.12234 
L 1003.237325 -107.567935 
L 1003.904234 -107.013531 
L 1004.782125 -106.459126 
L 1005.870434 -105.904721 
L 1007.165155 -105.350316 
L 1008.656184 -104.795911 
L 1010.325295 -104.241506 
L 1012.145116 -103.687101 
L 1014.079368 -103.132696 
L 1016.084512 -102.578291 
L 1018.112781 -102.023886 
L 1020.116358 -101.469481 
L 1022.052277 -100.915077 
L 1023.887408 -100.360672 
L 1025.602817 -99.806267 
L 1027.196732 -99.251862 
L 1028.685478 -98.697457 
L 1030.101969 -98.143052 
L 1031.491661 -97.588647 
L 1032.906276 -97.034242 
L 1034.395982 -96.479837 
L 1036.001016 -95.925432 
L 1037.74393 -95.371027 
L 1039.623605 -94.816622 
L 1041.612007 -94.262218 
L 1043.654267 -93.707813 
L 1045.672219 -93.153408 
L 1047.570975 -92.599003 
L 1049.247713 -92.044598 
L 1050.601499 -91.490193 
L 1051.542856 -90.935788 
L 1052.001875 -90.381383 
L 1051.933923 -89.826978 
L 1051.322425 -89.272573 
L 1050.178629 -88.718168 
L 1048.538718 -88.163763 
L 1046.458937 -87.609359 
L 1044.00961 -87.054954 
L 1041.268909 -86.500549 
L 1038.317153 -85.946144 
L 1035.232148 -85.391739 
L 1032.085851 -84.837334 
L 1028.942361 -84.282929 
L 1025.857032 -83.728524 
L 1022.876429 -83.174119 
L 1020.038749 -82.619714 
L 1017.374444 -82.065309 
L 1014.906818 -81.510904 
L 1012.652499 -80.9565 
L 1010.621785 -80.402095 
L 1008.818923 -79.84769 
L 1007.242419 -79.293285 
L 1005.885468 -78.73888 
L 1004.736563 -78.184475 
L 1003.780298 -77.63007 
L 1002.998333 -77.075665 
L 1002.37046 -76.52126 
L 1001.875677 -75.966855 
L 1001.493186 -75.41245 
L 1001.203237 -74.858045 
z
" style="stroke: #3e3e3e; stroke-width: 3"/>
    </defs>
    <g clip-path="url(#p321e957517)">
     <use xlink:href="#m35bf9726cc" x="0" y="288" style="fill: #e890be; stroke: #3e3e3e; stroke-width: 3"/>
    </g>
   </g>
   <g id="line2d_9">
    <path d="M 99.020625 194.217198 
L 99.020625 180.772926 
" clip-path="url(#p321e957517)" style="fill: none; stroke: #3e3e3e; stroke-width: 3"/>
   </g>
   <g id="line2d_10">
    <path d="M 99.020625 194.103785 
L 99.020625 188.719514 
" clip-path="url(#p321e957517)" style="fill: none; stroke: #3e3e3e; stroke-width: 9"/>
   </g>
   <g id="line2d_11">
    <path d="M 227.801875 195.091575 
L 227.801875 178.520641 
" clip-path="url(#p321e957517)" style="fill: none; stroke: #3e3e3e; stroke-width: 3"/>
   </g>
   <g id="line2d_12">
    <path d="M 227.801875 195.091575 
L 227.801875 188.187019 
" clip-path="url(#p321e957517)" style="fill: none; stroke: #3e3e3e; stroke-width: 9"/>
   </g>
   <g id="line2d_13">
    <path d="M 356.583125 208.863753 
L 356.583125 157.636879 
" clip-path="url(#p321e957517)" style="fill: none; stroke: #3e3e3e; stroke-width: 3"/>
   </g>
   <g id="line2d_14">
    <path d="M 356.583125 199.981674 
L 356.583125 175.739044 
" clip-path="url(#p321e957517)" style="fill: none; stroke: #3e3e3e; stroke-width: 9"/>
   </g>
   <g id="line2d_15">
    <path d="M 485.364375 207.680252 
L 485.364375 153.650068 
" clip-path="url(#p321e957517)" style="fill: none; stroke: #3e3e3e; stroke-width: 3"/>
   </g>
   <g id="line2d_16">
    <path d="M 485.364375 200.565166 
L 485.364375 181.109853 
" clip-path="url(#p321e957517)" style="fill: none; stroke: #3e3e3e; stroke-width: 9"/>
   </g>
   <g id="line2d_17">
    <path d="M 614.145625 214.568695 
L 614.145625 163.028975 
" clip-path="url(#p321e957517)" style="fill: none; stroke: #3e3e3e; stroke-width: 3"/>
   </g>
   <g id="line2d_18">
    <path d="M 614.145625 196.13284 
L 614.145625 182.601601 
" clip-path="url(#p321e957517)" style="fill: none; stroke: #3e3e3e; stroke-width: 9"/>
   </g>
   <g id="line2d_19">
    <path d="M 742.926875 218.871216 
L 742.926875 174.432823 
" clip-path="url(#p321e957517)" style="fill: none; stroke: #3e3e3e; stroke-width: 3"/>
   </g>
   <g id="line2d_20">
    <path d="M 742.926875 199.592459 
L 742.926875 177.144434 
" clip-path="url(#p321e957517)" style="fill: none; stroke: #3e3e3e; stroke-width: 9"/>
   </g>
   <g id="line2d_21">
    <path d="M 871.708125 205.12158 
L 871.708125 155.607695 
" clip-path="url(#p321e957517)" style="fill: none; stroke: #3e3e3e; stroke-width: 3"/>
   </g>
   <g id="line2d_22">
    <path d="M 871.708125 199.183713 
L 871.708125 180.290152 
" clip-path="url(#p321e957517)" style="fill: none; stroke: #3e3e3e; stroke-width: 9"/>
   </g>
   <g id="line2d_23">
    <path d="M 1000.489375 205.72544 
L 1000.489375 165.672382 
" clip-path="url(#p321e957517)" style="fill: none; stroke: #3e3e3e; stroke-width: 3"/>
   </g>
   <g id="line2d_24">
    <path d="M 1000.489375 198.693224 
L 1000.489375 169.112053 
" clip-path="url(#p321e957517)" style="fill: none; stroke: #3e3e3e; stroke-width: 9"/>
   </g>
   <g id="patch_3">
    <path d="M 34.63 255.8 
L 34.63 43.92 
" style="fill: none; stroke: #f0f0f0; stroke-width: 3; stroke-linejoin: miter; stroke-linecap: square"/>
   </g>
   <g id="patch_4">
    <path d="M 1064.88 255.8 
L 1064.88 43.92 
" style="fill: none; stroke: #f0f0f0; stroke-width: 3; stroke-linejoin: miter; stroke-linecap: square"/>
   </g>
   <g id="patch_5">
    <path d="M 34.63 255.8 
L 1064.88 255.8 
" style="fill: none; stroke: #f0f0f0; stroke-width: 3; stroke-linejoin: miter; stroke-linecap: square"/>
   </g>
   <g id="patch_6">
    <path d="M 34.63 43.92 
L 1064.88 43.92 
" style="fill: none; stroke: #f0f0f0; stroke-width: 3; stroke-linejoin: miter; stroke-linecap: square"/>
   </g>
   <g id="PathCollection_1">
    <defs>
     <path id="mb0820c197c" d="M 0 3 
C 0.795609 3 1.55874 2.683901 2.12132 2.12132 
C 2.683901 1.55874 3 0.795609 3 0 
C 3 -0.795609 2.683901 -1.55874 2.12132 -2.12132 
C 1.55874 -2.683901 0.795609 -3 0 -3 
C -0.795609 -3 -1.55874 -2.683901 -2.12132 -2.12132 
C -2.683901 -1.55874 -3 -0.795609 -3 0 
C -3 0.795609 -2.683901 1.55874 -2.12132 2.12132 
C -1.55874 2.683901 -0.795609 3 0 3 
z
" style="stroke: #3e3e3e; stroke-width: 0.5"/>
    </defs>
    <g clip-path="url(#p321e957517)">
     <use xlink:href="#mb0820c197c" x="99.020625" y="193.84249" style="fill: #ffffff; stroke: #3e3e3e; stroke-width: 0.5"/>
    </g>
   </g>
   <g id="PathCollection_2">
    <g clip-path="url(#p321e957517)">
     <use xlink:href="#mb0820c197c" x="227.801875" y="195.091575" style="fill: #ffffff; stroke: #3e3e3e; stroke-width: 0.5"/>
    </g>
   </g>
   <g id="PathCollection_3">
    <g clip-path="url(#p321e957517)">
     <use xlink:href="#mb0820c197c" x="356.583125" y="191.531493" style="fill: #ffffff; stroke: #3e3e3e; stroke-width: 0.5"/>
    </g>
   </g>
   <g id="PathCollection_4">
    <g clip-path="url(#p321e957517)">
     <use xlink:href="#mb0820c197c" x="485.364375" y="190.67075" style="fill: #ffffff; stroke: #3e3e3e; stroke-width: 0.5"/>
    </g>
   </g>
   <g id="PathCollection_5">
    <g clip-path="url(#p321e957517)">
     <use xlink:href="#mb0820c197c" x="614.145625" y="190.210631" style="fill: #ffffff; stroke: #3e3e3e; stroke-width: 0.5"/>
    </g>
   </g>
   <g id="PathCollection_6">
    <g clip-path="url(#p321e957517)">
     <use xlink:href="#mb0820c197c" x="742.926875" y="184.730082" style="fill: #ffffff; stroke: #3e3e3e; stroke-width: 0.5"/>
    </g>
   </g>
   <g id="PathCollection_7">
    <g clip-path="url(#p321e957517)">
     <use xlink:href="#mb0820c197c" x="871.708125" y="192.409531" style="fill: #ffffff; stroke: #3e3e3e; stroke-width: 0.5"/>
    </g>
   </g>
   <g id="PathCollection_8">
    <g clip-path="url(#p321e957517)">
     <use xlink:href="#mb0820c197c" x="1000.489375" y="194.79493" style="fill: #ffffff; stroke: #3e3e3e; stroke-width: 0.5"/>
    </g>
   </g>
  </g>
  <g id="text_17">
   <!-- Violin Plot of all Continuous Variables -->
   <g style="fill: #262626" transform="translate(416.035547 16.496719)scale(0.15 -0.15)">
    <defs>
     <path id="ArialMT-56" d="M 1803 0 
L 28 4581 
L 684 4581 
L 1875 1253 
Q 2019 853 2116 503 
Q 2222 878 2363 1253 
L 3600 4581 
L 4219 4581 
L 2425 0 
L 1803 0 
z
" transform="scale(0.015625)"/>
     <path id="ArialMT-69" d="M 425 3934 
L 425 4581 
L 988 4581 
L 988 3934 
L 425 3934 
z
M 425 0 
L 425 3319 
L 988 3319 
L 988 0 
L 425 0 
z
" transform="scale(0.015625)"/>
     <path id="ArialMT-6f" d="M 213 1659 
Q 213 2581 725 3025 
Q 1153 3394 1769 3394 
Q 2453 3394 2887 2945 
Q 3322 2497 3322 1706 
Q 3322 1066 3130 698 
Q 2938 331 2570 128 
Q 2203 -75 1769 -75 
Q 1072 -75 642 372 
Q 213 819 213 1659 
z
M 791 1659 
Q 791 1022 1069 705 
Q 1347 388 1769 388 
Q 2188 388 2466 706 
Q 2744 1025 2744 1678 
Q 2744 2294 2464 2611 
Q 2184 2928 1769 2928 
Q 1347 2928 1069 2612 
Q 791 2297 791 1659 
z
" transform="scale(0.015625)"/>
     <path id="ArialMT-6c" d="M 409 0 
L 409 4581 
L 972 4581 
L 972 0 
L 409 0 
z
" transform="scale(0.015625)"/>
     <path id="ArialMT-6e" d="M 422 0 
L 422 3319 
L 928 3319 
L 928 2847 
Q 1294 3394 1984 3394 
Q 2284 3394 2536 3286 
Q 2788 3178 2913 3003 
Q 3038 2828 3088 2588 
Q 3119 2431 3119 2041 
L 3119 0 
L 2556 0 
L 2556 2019 
Q 2556 2363 2490 2533 
Q 2425 2703 2258 2804 
Q 2091 2906 1866 2906 
Q 1506 2906 1245 2678 
Q 984 2450 984 1813 
L 984 0 
L 422 0 
z
" transform="scale(0.015625)"/>
     <path id="ArialMT-20" transform="scale(0.015625)"/>
     <path id="ArialMT-50" d="M 494 0 
L 494 4581 
L 2222 4581 
Q 2678 4581 2919 4538 
Q 3256 4481 3484 4323 
Q 3713 4166 3852 3881 
Q 3991 3597 3991 3256 
Q 3991 2672 3619 2267 
Q 3247 1863 2275 1863 
L 1100 1863 
L 1100 0 
L 494 0 
z
M 1100 2403 
L 2284 2403 
Q 2872 2403 3119 2622 
Q 3366 2841 3366 3238 
Q 3366 3525 3220 3729 
Q 3075 3934 2838 4000 
Q 2684 4041 2272 4041 
L 1100 4041 
L 1100 2403 
z
" transform="scale(0.015625)"/>
     <path id="ArialMT-74" d="M 1650 503 
L 1731 6 
Q 1494 -44 1306 -44 
Q 1000 -44 831 53 
Q 663 150 594 308 
Q 525 466 525 972 
L 525 2881 
L 113 2881 
L 113 3319 
L 525 3319 
L 525 4141 
L 1084 4478 
L 1084 3319 
L 1650 3319 
L 1650 2881 
L 1084 2881 
L 1084 941 
Q 1084 700 1114 631 
Q 1144 563 1211 522 
Q 1278 481 1403 481 
Q 1497 481 1650 503 
z
" transform="scale(0.015625)"/>
     <path id="ArialMT-66" d="M 556 0 
L 556 2881 
L 59 2881 
L 59 3319 
L 556 3319 
L 556 3672 
Q 556 4006 616 4169 
Q 697 4388 901 4523 
Q 1106 4659 1475 4659 
Q 1713 4659 2000 4603 
L 1916 4113 
Q 1741 4144 1584 4144 
Q 1328 4144 1222 4034 
Q 1116 3925 1116 3625 
L 1116 3319 
L 1763 3319 
L 1763 2881 
L 1116 2881 
L 1116 0 
L 556 0 
z
" transform="scale(0.015625)"/>
     <path id="ArialMT-61" d="M 2588 409 
Q 2275 144 1986 34 
Q 1697 -75 1366 -75 
Q 819 -75 525 192 
Q 231 459 231 875 
Q 231 1119 342 1320 
Q 453 1522 633 1644 
Q 813 1766 1038 1828 
Q 1203 1872 1538 1913 
Q 2219 1994 2541 2106 
Q 2544 2222 2544 2253 
Q 2544 2597 2384 2738 
Q 2169 2928 1744 2928 
Q 1347 2928 1158 2789 
Q 969 2650 878 2297 
L 328 2372 
Q 403 2725 575 2942 
Q 747 3159 1072 3276 
Q 1397 3394 1825 3394 
Q 2250 3394 2515 3294 
Q 2781 3194 2906 3042 
Q 3031 2891 3081 2659 
Q 3109 2516 3109 2141 
L 3109 1391 
Q 3109 606 3145 398 
Q 3181 191 3288 0 
L 2700 0 
Q 2613 175 2588 409 
z
M 2541 1666 
Q 2234 1541 1622 1453 
Q 1275 1403 1131 1340 
Q 988 1278 909 1158 
Q 831 1038 831 891 
Q 831 666 1001 516 
Q 1172 366 1500 366 
Q 1825 366 2078 508 
Q 2331 650 2450 897 
Q 2541 1088 2541 1459 
L 2541 1666 
z
" transform="scale(0.015625)"/>
     <path id="ArialMT-75" d="M 2597 0 
L 2597 488 
Q 2209 -75 1544 -75 
Q 1250 -75 995 37 
Q 741 150 617 320 
Q 494 491 444 738 
Q 409 903 409 1263 
L 409 3319 
L 972 3319 
L 972 1478 
Q 972 1038 1006 884 
Q 1059 663 1231 536 
Q 1403 409 1656 409 
Q 1909 409 2131 539 
Q 2353 669 2445 892 
Q 2538 1116 2538 1541 
L 2538 3319 
L 3100 3319 
L 3100 0 
L 2597 0 
z
" transform="scale(0.015625)"/>
     <path id="ArialMT-73" d="M 197 991 
L 753 1078 
Q 800 744 1014 566 
Q 1228 388 1613 388 
Q 2000 388 2187 545 
Q 2375 703 2375 916 
Q 2375 1106 2209 1216 
Q 2094 1291 1634 1406 
Q 1016 1563 777 1677 
Q 538 1791 414 1992 
Q 291 2194 291 2438 
Q 291 2659 392 2848 
Q 494 3038 669 3163 
Q 800 3259 1026 3326 
Q 1253 3394 1513 3394 
Q 1903 3394 2198 3281 
Q 2494 3169 2634 2976 
Q 2775 2784 2828 2463 
L 2278 2388 
Q 2241 2644 2061 2787 
Q 1881 2931 1553 2931 
Q 1166 2931 1000 2803 
Q 834 2675 834 2503 
Q 834 2394 903 2306 
Q 972 2216 1119 2156 
Q 1203 2125 1616 2013 
Q 2213 1853 2448 1751 
Q 2684 1650 2818 1456 
Q 2953 1263 2953 975 
Q 2953 694 2789 445 
Q 2625 197 2315 61 
Q 2006 -75 1616 -75 
Q 969 -75 630 194 
Q 291 463 197 991 
z
" transform="scale(0.015625)"/>
     <path id="ArialMT-72" d="M 416 0 
L 416 3319 
L 922 3319 
L 922 2816 
Q 1116 3169 1280 3281 
Q 1444 3394 1641 3394 
Q 1925 3394 2219 3213 
L 2025 2691 
Q 1819 2813 1613 2813 
Q 1428 2813 1281 2702 
Q 1134 2591 1072 2394 
Q 978 2094 978 1738 
L 978 0 
L 416 0 
z
" transform="scale(0.015625)"/>
     <path id="ArialMT-62" d="M 941 0 
L 419 0 
L 419 4581 
L 981 4581 
L 981 2947 
Q 1338 3394 1891 3394 
Q 2197 3394 2470 3270 
Q 2744 3147 2920 2923 
Q 3097 2700 3197 2384 
Q 3297 2069 3297 1709 
Q 3297 856 2875 390 
Q 2453 -75 1863 -75 
Q 1275 -75 941 416 
L 941 0 
z
M 934 1684 
Q 934 1088 1097 822 
Q 1363 388 1816 388 
Q 2184 388 2453 708 
Q 2722 1028 2722 1663 
Q 2722 2313 2464 2622 
Q 2206 2931 1841 2931 
Q 1472 2931 1203 2611 
Q 934 2291 934 1684 
z
" transform="scale(0.015625)"/>
     <path id="ArialMT-65" d="M 2694 1069 
L 3275 997 
Q 3138 488 2766 206 
Q 2394 -75 1816 -75 
Q 1088 -75 661 373 
Q 234 822 234 1631 
Q 234 2469 665 2931 
Q 1097 3394 1784 3394 
Q 2450 3394 2872 2941 
Q 3294 2488 3294 1666 
Q 3294 1616 3291 1516 
L 816 1516 
Q 847 969 1125 678 
Q 1403 388 1819 388 
Q 2128 388 2347 550 
Q 2566 713 2694 1069 
z
M 847 1978 
L 2700 1978 
Q 2663 2397 2488 2606 
Q 2219 2931 1791 2931 
Q 1403 2931 1139 2672 
Q 875 2413 847 1978 
z
" transform="scale(0.015625)"/>
    </defs>
    <use xlink:href="#ArialMT-56"/>
    <use xlink:href="#ArialMT-69" x="64.949219"/>
    <use xlink:href="#ArialMT-6f" x="87.166016"/>
    <use xlink:href="#ArialMT-6c" x="142.78125"/>
    <use xlink:href="#ArialMT-69" x="164.998047"/>
    <use xlink:href="#ArialMT-6e" x="187.214844"/>
    <use xlink:href="#ArialMT-20" x="242.830078"/>
    <use xlink:href="#ArialMT-50" x="270.613281"/>
    <use xlink:href="#ArialMT-6c" x="337.3125"/>
    <use xlink:href="#ArialMT-6f" x="359.529297"/>
    <use xlink:href="#ArialMT-74" x="415.144531"/>
    <use xlink:href="#ArialMT-20" x="442.927734"/>
    <use xlink:href="#ArialMT-6f" x="470.710938"/>
    <use xlink:href="#ArialMT-66" x="526.326172"/>
    <use xlink:href="#ArialMT-20" x="554.109375"/>
    <use xlink:href="#ArialMT-61" x="581.892578"/>
    <use xlink:href="#ArialMT-6c" x="637.507812"/>
    <use xlink:href="#ArialMT-6c" x="659.724609"/>
    <use xlink:href="#ArialMT-20" x="681.941406"/>
    <use xlink:href="#ArialMT-43" x="709.724609"/>
    <use xlink:href="#ArialMT-6f" x="781.941406"/>
    <use xlink:href="#ArialMT-6e" x="837.556641"/>
    <use xlink:href="#ArialMT-74" x="893.171875"/>
    <use xlink:href="#ArialMT-69" x="920.955078"/>
    <use xlink:href="#ArialMT-6e" x="943.171875"/>
    <use xlink:href="#ArialMT-75" x="998.787109"/>
    <use xlink:href="#ArialMT-6f" x="1054.402344"/>
    <use xlink:href="#ArialMT-75" x="1110.017578"/>
    <use xlink:href="#ArialMT-73" x="1165.632812"/>
    <use xlink:href="#ArialMT-20" x="1215.632812"/>
    <use xlink:href="#ArialMT-56" x="1243.416016"/>
    <use xlink:href="#ArialMT-61" x="1302.740234"/>
    <use xlink:href="#ArialMT-72" x="1358.355469"/>
    <use xlink:href="#ArialMT-69" x="1391.65625"/>
    <use xlink:href="#ArialMT-61" x="1413.873047"/>
    <use xlink:href="#ArialMT-62" x="1469.488281"/>
    <use xlink:href="#ArialMT-6c" x="1525.103516"/>
    <use xlink:href="#ArialMT-65" x="1547.320312"/>
    <use xlink:href="#ArialMT-73" x="1602.935547"/>
   </g>
  </g>
 </g>
 <defs>
  <clipPath id="p321e957517">
   <rect x="34.63" y="43.92" width="1030.25" height="211.88"/>
  </clipPath>
 </defs>
</svg>
